%TF.GenerationSoftware,KiCad,Pcbnew,7.0.10*%
%TF.CreationDate,2024-03-09T15:17:23+01:00*%
%TF.ProjectId,Lamp Matrix Tester,4c616d70-204d-4617-9472-697820546573,1.0*%
%TF.SameCoordinates,Original*%
%TF.FileFunction,Drillmap*%
%TF.FilePolarity,Positive*%
%FSLAX45Y45*%
G04 Gerber Fmt 4.5, Leading zero omitted, Abs format (unit mm)*
G04 Created by KiCad (PCBNEW 7.0.10) date 2024-03-09 15:17:23*
%MOMM*%
%LPD*%
G01*
G04 APERTURE LIST*
%ADD10C,0.100000*%
%ADD11C,0.200000*%
G04 APERTURE END LIST*
D10*
X2286000Y-1524000D02*
X7366000Y-1524000D01*
X7366000Y-6858000D01*
X2286000Y-6858000D01*
X2286000Y-1524000D01*
D11*
D10*
X3902000Y-5137000D02*
X3972000Y-5207000D01*
X3972000Y-5137000D02*
X3902000Y-5207000D01*
X3902000Y-5899000D02*
X3972000Y-5969000D01*
X3972000Y-5899000D02*
X3902000Y-5969000D01*
X4156000Y-5137000D02*
X4226000Y-5207000D01*
X4226000Y-5137000D02*
X4156000Y-5207000D01*
X4156000Y-5899000D02*
X4226000Y-5969000D01*
X4226000Y-5899000D02*
X4156000Y-5969000D01*
X4410000Y-4051000D02*
X4480000Y-4121000D01*
X4480000Y-4051000D02*
X4410000Y-4121000D01*
X4410000Y-4813000D02*
X4480000Y-4883000D01*
X4480000Y-4813000D02*
X4410000Y-4883000D01*
X4918000Y-4051000D02*
X4988000Y-4121000D01*
X4988000Y-4051000D02*
X4918000Y-4121000D01*
X4918000Y-4813000D02*
X4988000Y-4883000D01*
X4988000Y-4813000D02*
X4918000Y-4883000D01*
X4918000Y-5137000D02*
X4988000Y-5207000D01*
X4988000Y-5137000D02*
X4918000Y-5207000D01*
X4918000Y-5899000D02*
X4988000Y-5969000D01*
X4988000Y-5899000D02*
X4918000Y-5969000D01*
X5426000Y-5137000D02*
X5496000Y-5207000D01*
X5496000Y-5137000D02*
X5426000Y-5207000D01*
X5426000Y-5899000D02*
X5496000Y-5969000D01*
X5496000Y-5899000D02*
X5426000Y-5969000D01*
X5680000Y-4051000D02*
X5750000Y-4121000D01*
X5750000Y-4051000D02*
X5680000Y-4121000D01*
X5680000Y-4813000D02*
X5750000Y-4883000D01*
X5750000Y-4813000D02*
X5680000Y-4883000D01*
X5680000Y-5137000D02*
X5750000Y-5207000D01*
X5750000Y-5137000D02*
X5680000Y-5207000D01*
X5680000Y-5899000D02*
X5750000Y-5969000D01*
X5750000Y-5899000D02*
X5680000Y-5969000D01*
X2717000Y-2794000D02*
G75*
G03*
X2617000Y-2794000I-50000J0D01*
G01*
X2617000Y-2794000D02*
G75*
G03*
X2717000Y-2794000I50000J0D01*
G01*
X2971000Y-2794000D02*
G75*
G03*
X2871000Y-2794000I-50000J0D01*
G01*
X2871000Y-2794000D02*
G75*
G03*
X2971000Y-2794000I50000J0D01*
G01*
X3225000Y-2794000D02*
G75*
G03*
X3125000Y-2794000I-50000J0D01*
G01*
X3125000Y-2794000D02*
G75*
G03*
X3225000Y-2794000I50000J0D01*
G01*
X3479000Y-2794000D02*
G75*
G03*
X3379000Y-2794000I-50000J0D01*
G01*
X3379000Y-2794000D02*
G75*
G03*
X3479000Y-2794000I50000J0D01*
G01*
X3733000Y-2794000D02*
G75*
G03*
X3633000Y-2794000I-50000J0D01*
G01*
X3633000Y-2794000D02*
G75*
G03*
X3733000Y-2794000I50000J0D01*
G01*
X3987000Y-2794000D02*
G75*
G03*
X3887000Y-2794000I-50000J0D01*
G01*
X3887000Y-2794000D02*
G75*
G03*
X3987000Y-2794000I50000J0D01*
G01*
X3987000Y-3810000D02*
G75*
G03*
X3887000Y-3810000I-50000J0D01*
G01*
X3887000Y-3810000D02*
G75*
G03*
X3987000Y-3810000I50000J0D01*
G01*
X3987000Y-6210000D02*
G75*
G03*
X3887000Y-6210000I-50000J0D01*
G01*
X3887000Y-6210000D02*
G75*
G03*
X3987000Y-6210000I50000J0D01*
G01*
X4241000Y-2794000D02*
G75*
G03*
X4141000Y-2794000I-50000J0D01*
G01*
X4141000Y-2794000D02*
G75*
G03*
X4241000Y-2794000I50000J0D01*
G01*
X4241000Y-3810000D02*
G75*
G03*
X4141000Y-3810000I-50000J0D01*
G01*
X4141000Y-3810000D02*
G75*
G03*
X4241000Y-3810000I50000J0D01*
G01*
X4241000Y-6210000D02*
G75*
G03*
X4141000Y-6210000I-50000J0D01*
G01*
X4141000Y-6210000D02*
G75*
G03*
X4241000Y-6210000I50000J0D01*
G01*
X4495000Y-2794000D02*
G75*
G03*
X4395000Y-2794000I-50000J0D01*
G01*
X4395000Y-2794000D02*
G75*
G03*
X4495000Y-2794000I50000J0D01*
G01*
X4495000Y-3810000D02*
G75*
G03*
X4395000Y-3810000I-50000J0D01*
G01*
X4395000Y-3810000D02*
G75*
G03*
X4495000Y-3810000I50000J0D01*
G01*
X4495000Y-6210000D02*
G75*
G03*
X4395000Y-6210000I-50000J0D01*
G01*
X4395000Y-6210000D02*
G75*
G03*
X4495000Y-6210000I50000J0D01*
G01*
X4749000Y-3810000D02*
G75*
G03*
X4649000Y-3810000I-50000J0D01*
G01*
X4649000Y-3810000D02*
G75*
G03*
X4749000Y-3810000I50000J0D01*
G01*
X4749000Y-6210000D02*
G75*
G03*
X4649000Y-6210000I-50000J0D01*
G01*
X4649000Y-6210000D02*
G75*
G03*
X4749000Y-6210000I50000J0D01*
G01*
X5003000Y-3810000D02*
G75*
G03*
X4903000Y-3810000I-50000J0D01*
G01*
X4903000Y-3810000D02*
G75*
G03*
X5003000Y-3810000I50000J0D01*
G01*
X5003000Y-6210000D02*
G75*
G03*
X4903000Y-6210000I-50000J0D01*
G01*
X4903000Y-6210000D02*
G75*
G03*
X5003000Y-6210000I50000J0D01*
G01*
X5257000Y-2794000D02*
G75*
G03*
X5157000Y-2794000I-50000J0D01*
G01*
X5157000Y-2794000D02*
G75*
G03*
X5257000Y-2794000I50000J0D01*
G01*
X5257000Y-3810000D02*
G75*
G03*
X5157000Y-3810000I-50000J0D01*
G01*
X5157000Y-3810000D02*
G75*
G03*
X5257000Y-3810000I50000J0D01*
G01*
X5257000Y-6210000D02*
G75*
G03*
X5157000Y-6210000I-50000J0D01*
G01*
X5157000Y-6210000D02*
G75*
G03*
X5257000Y-6210000I50000J0D01*
G01*
X5511000Y-2794000D02*
G75*
G03*
X5411000Y-2794000I-50000J0D01*
G01*
X5411000Y-2794000D02*
G75*
G03*
X5511000Y-2794000I50000J0D01*
G01*
X5511000Y-3810000D02*
G75*
G03*
X5411000Y-3810000I-50000J0D01*
G01*
X5411000Y-3810000D02*
G75*
G03*
X5511000Y-3810000I50000J0D01*
G01*
X5511000Y-6210000D02*
G75*
G03*
X5411000Y-6210000I-50000J0D01*
G01*
X5411000Y-6210000D02*
G75*
G03*
X5511000Y-6210000I50000J0D01*
G01*
X5765000Y-2794000D02*
G75*
G03*
X5665000Y-2794000I-50000J0D01*
G01*
X5665000Y-2794000D02*
G75*
G03*
X5765000Y-2794000I50000J0D01*
G01*
X5765000Y-3810000D02*
G75*
G03*
X5665000Y-3810000I-50000J0D01*
G01*
X5665000Y-3810000D02*
G75*
G03*
X5765000Y-3810000I50000J0D01*
G01*
X5765000Y-6210000D02*
G75*
G03*
X5665000Y-6210000I-50000J0D01*
G01*
X5665000Y-6210000D02*
G75*
G03*
X5765000Y-6210000I50000J0D01*
G01*
X6019000Y-2794000D02*
G75*
G03*
X5919000Y-2794000I-50000J0D01*
G01*
X5919000Y-2794000D02*
G75*
G03*
X6019000Y-2794000I50000J0D01*
G01*
X6273000Y-2794000D02*
G75*
G03*
X6173000Y-2794000I-50000J0D01*
G01*
X6173000Y-2794000D02*
G75*
G03*
X6273000Y-2794000I50000J0D01*
G01*
X6527000Y-2794000D02*
G75*
G03*
X6427000Y-2794000I-50000J0D01*
G01*
X6427000Y-2794000D02*
G75*
G03*
X6527000Y-2794000I50000J0D01*
G01*
X6781000Y-2794000D02*
G75*
G03*
X6681000Y-2794000I-50000J0D01*
G01*
X6681000Y-2794000D02*
G75*
G03*
X6781000Y-2794000I50000J0D01*
G01*
X7035000Y-2794000D02*
G75*
G03*
X6935000Y-2794000I-50000J0D01*
G01*
X6935000Y-2794000D02*
G75*
G03*
X7035000Y-2794000I50000J0D01*
G01*
D11*
X2541777Y-7174484D02*
X2541777Y-6974484D01*
X2541777Y-6974484D02*
X2589396Y-6974484D01*
X2589396Y-6974484D02*
X2617967Y-6984008D01*
X2617967Y-6984008D02*
X2637015Y-7003055D01*
X2637015Y-7003055D02*
X2646539Y-7022103D01*
X2646539Y-7022103D02*
X2656063Y-7060198D01*
X2656063Y-7060198D02*
X2656063Y-7088769D01*
X2656063Y-7088769D02*
X2646539Y-7126865D01*
X2646539Y-7126865D02*
X2637015Y-7145912D01*
X2637015Y-7145912D02*
X2617967Y-7164960D01*
X2617967Y-7164960D02*
X2589396Y-7174484D01*
X2589396Y-7174484D02*
X2541777Y-7174484D01*
X2741777Y-7174484D02*
X2741777Y-7041150D01*
X2741777Y-7079246D02*
X2751301Y-7060198D01*
X2751301Y-7060198D02*
X2760824Y-7050674D01*
X2760824Y-7050674D02*
X2779872Y-7041150D01*
X2779872Y-7041150D02*
X2798920Y-7041150D01*
X2865586Y-7174484D02*
X2865586Y-7041150D01*
X2865586Y-6974484D02*
X2856062Y-6984008D01*
X2856062Y-6984008D02*
X2865586Y-6993531D01*
X2865586Y-6993531D02*
X2875110Y-6984008D01*
X2875110Y-6984008D02*
X2865586Y-6974484D01*
X2865586Y-6974484D02*
X2865586Y-6993531D01*
X2989396Y-7174484D02*
X2970348Y-7164960D01*
X2970348Y-7164960D02*
X2960824Y-7145912D01*
X2960824Y-7145912D02*
X2960824Y-6974484D01*
X3094158Y-7174484D02*
X3075110Y-7164960D01*
X3075110Y-7164960D02*
X3065586Y-7145912D01*
X3065586Y-7145912D02*
X3065586Y-6974484D01*
X3322729Y-7174484D02*
X3322729Y-6974484D01*
X3322729Y-6974484D02*
X3389396Y-7117341D01*
X3389396Y-7117341D02*
X3456062Y-6974484D01*
X3456062Y-6974484D02*
X3456062Y-7174484D01*
X3637015Y-7174484D02*
X3637015Y-7069722D01*
X3637015Y-7069722D02*
X3627491Y-7050674D01*
X3627491Y-7050674D02*
X3608443Y-7041150D01*
X3608443Y-7041150D02*
X3570348Y-7041150D01*
X3570348Y-7041150D02*
X3551301Y-7050674D01*
X3637015Y-7164960D02*
X3617967Y-7174484D01*
X3617967Y-7174484D02*
X3570348Y-7174484D01*
X3570348Y-7174484D02*
X3551301Y-7164960D01*
X3551301Y-7164960D02*
X3541777Y-7145912D01*
X3541777Y-7145912D02*
X3541777Y-7126865D01*
X3541777Y-7126865D02*
X3551301Y-7107817D01*
X3551301Y-7107817D02*
X3570348Y-7098293D01*
X3570348Y-7098293D02*
X3617967Y-7098293D01*
X3617967Y-7098293D02*
X3637015Y-7088769D01*
X3732253Y-7041150D02*
X3732253Y-7241150D01*
X3732253Y-7050674D02*
X3751301Y-7041150D01*
X3751301Y-7041150D02*
X3789396Y-7041150D01*
X3789396Y-7041150D02*
X3808443Y-7050674D01*
X3808443Y-7050674D02*
X3817967Y-7060198D01*
X3817967Y-7060198D02*
X3827491Y-7079246D01*
X3827491Y-7079246D02*
X3827491Y-7136388D01*
X3827491Y-7136388D02*
X3817967Y-7155436D01*
X3817967Y-7155436D02*
X3808443Y-7164960D01*
X3808443Y-7164960D02*
X3789396Y-7174484D01*
X3789396Y-7174484D02*
X3751301Y-7174484D01*
X3751301Y-7174484D02*
X3732253Y-7164960D01*
X3913205Y-7155436D02*
X3922729Y-7164960D01*
X3922729Y-7164960D02*
X3913205Y-7174484D01*
X3913205Y-7174484D02*
X3903682Y-7164960D01*
X3903682Y-7164960D02*
X3913205Y-7155436D01*
X3913205Y-7155436D02*
X3913205Y-7174484D01*
X3913205Y-7050674D02*
X3922729Y-7060198D01*
X3922729Y-7060198D02*
X3913205Y-7069722D01*
X3913205Y-7069722D02*
X3903682Y-7060198D01*
X3903682Y-7060198D02*
X3913205Y-7050674D01*
X3913205Y-7050674D02*
X3913205Y-7069722D01*
D10*
X2211000Y-7468000D02*
X2281000Y-7538000D01*
X2281000Y-7468000D02*
X2211000Y-7538000D01*
D11*
X2579872Y-7394484D02*
X2598920Y-7394484D01*
X2598920Y-7394484D02*
X2617967Y-7404008D01*
X2617967Y-7404008D02*
X2627491Y-7413531D01*
X2627491Y-7413531D02*
X2637015Y-7432579D01*
X2637015Y-7432579D02*
X2646539Y-7470674D01*
X2646539Y-7470674D02*
X2646539Y-7518293D01*
X2646539Y-7518293D02*
X2637015Y-7556388D01*
X2637015Y-7556388D02*
X2627491Y-7575436D01*
X2627491Y-7575436D02*
X2617967Y-7584960D01*
X2617967Y-7584960D02*
X2598920Y-7594484D01*
X2598920Y-7594484D02*
X2579872Y-7594484D01*
X2579872Y-7594484D02*
X2560824Y-7584960D01*
X2560824Y-7584960D02*
X2551301Y-7575436D01*
X2551301Y-7575436D02*
X2541777Y-7556388D01*
X2541777Y-7556388D02*
X2532253Y-7518293D01*
X2532253Y-7518293D02*
X2532253Y-7470674D01*
X2532253Y-7470674D02*
X2541777Y-7432579D01*
X2541777Y-7432579D02*
X2551301Y-7413531D01*
X2551301Y-7413531D02*
X2560824Y-7404008D01*
X2560824Y-7404008D02*
X2579872Y-7394484D01*
X2732253Y-7575436D02*
X2741777Y-7584960D01*
X2741777Y-7584960D02*
X2732253Y-7594484D01*
X2732253Y-7594484D02*
X2722729Y-7584960D01*
X2722729Y-7584960D02*
X2732253Y-7575436D01*
X2732253Y-7575436D02*
X2732253Y-7594484D01*
X2808443Y-7394484D02*
X2941777Y-7394484D01*
X2941777Y-7394484D02*
X2856062Y-7594484D01*
X3056062Y-7394484D02*
X3075110Y-7394484D01*
X3075110Y-7394484D02*
X3094158Y-7404008D01*
X3094158Y-7404008D02*
X3103682Y-7413531D01*
X3103682Y-7413531D02*
X3113205Y-7432579D01*
X3113205Y-7432579D02*
X3122729Y-7470674D01*
X3122729Y-7470674D02*
X3122729Y-7518293D01*
X3122729Y-7518293D02*
X3113205Y-7556388D01*
X3113205Y-7556388D02*
X3103682Y-7575436D01*
X3103682Y-7575436D02*
X3094158Y-7584960D01*
X3094158Y-7584960D02*
X3075110Y-7594484D01*
X3075110Y-7594484D02*
X3056062Y-7594484D01*
X3056062Y-7594484D02*
X3037015Y-7584960D01*
X3037015Y-7584960D02*
X3027491Y-7575436D01*
X3027491Y-7575436D02*
X3017967Y-7556388D01*
X3017967Y-7556388D02*
X3008443Y-7518293D01*
X3008443Y-7518293D02*
X3008443Y-7470674D01*
X3008443Y-7470674D02*
X3017967Y-7432579D01*
X3017967Y-7432579D02*
X3027491Y-7413531D01*
X3027491Y-7413531D02*
X3037015Y-7404008D01*
X3037015Y-7404008D02*
X3056062Y-7394484D01*
X3246539Y-7394484D02*
X3265586Y-7394484D01*
X3265586Y-7394484D02*
X3284634Y-7404008D01*
X3284634Y-7404008D02*
X3294158Y-7413531D01*
X3294158Y-7413531D02*
X3303682Y-7432579D01*
X3303682Y-7432579D02*
X3313205Y-7470674D01*
X3313205Y-7470674D02*
X3313205Y-7518293D01*
X3313205Y-7518293D02*
X3303682Y-7556388D01*
X3303682Y-7556388D02*
X3294158Y-7575436D01*
X3294158Y-7575436D02*
X3284634Y-7584960D01*
X3284634Y-7584960D02*
X3265586Y-7594484D01*
X3265586Y-7594484D02*
X3246539Y-7594484D01*
X3246539Y-7594484D02*
X3227491Y-7584960D01*
X3227491Y-7584960D02*
X3217967Y-7575436D01*
X3217967Y-7575436D02*
X3208443Y-7556388D01*
X3208443Y-7556388D02*
X3198920Y-7518293D01*
X3198920Y-7518293D02*
X3198920Y-7470674D01*
X3198920Y-7470674D02*
X3208443Y-7432579D01*
X3208443Y-7432579D02*
X3217967Y-7413531D01*
X3217967Y-7413531D02*
X3227491Y-7404008D01*
X3227491Y-7404008D02*
X3246539Y-7394484D01*
X3398920Y-7594484D02*
X3398920Y-7461150D01*
X3398920Y-7480198D02*
X3408443Y-7470674D01*
X3408443Y-7470674D02*
X3427491Y-7461150D01*
X3427491Y-7461150D02*
X3456063Y-7461150D01*
X3456063Y-7461150D02*
X3475110Y-7470674D01*
X3475110Y-7470674D02*
X3484634Y-7489722D01*
X3484634Y-7489722D02*
X3484634Y-7594484D01*
X3484634Y-7489722D02*
X3494158Y-7470674D01*
X3494158Y-7470674D02*
X3513205Y-7461150D01*
X3513205Y-7461150D02*
X3541777Y-7461150D01*
X3541777Y-7461150D02*
X3560824Y-7470674D01*
X3560824Y-7470674D02*
X3570348Y-7489722D01*
X3570348Y-7489722D02*
X3570348Y-7594484D01*
X3665586Y-7594484D02*
X3665586Y-7461150D01*
X3665586Y-7480198D02*
X3675110Y-7470674D01*
X3675110Y-7470674D02*
X3694158Y-7461150D01*
X3694158Y-7461150D02*
X3722729Y-7461150D01*
X3722729Y-7461150D02*
X3741777Y-7470674D01*
X3741777Y-7470674D02*
X3751301Y-7489722D01*
X3751301Y-7489722D02*
X3751301Y-7594484D01*
X3751301Y-7489722D02*
X3760824Y-7470674D01*
X3760824Y-7470674D02*
X3779872Y-7461150D01*
X3779872Y-7461150D02*
X3808443Y-7461150D01*
X3808443Y-7461150D02*
X3827491Y-7470674D01*
X3827491Y-7470674D02*
X3837015Y-7489722D01*
X3837015Y-7489722D02*
X3837015Y-7594484D01*
X4227491Y-7384960D02*
X4056063Y-7642103D01*
X4484634Y-7394484D02*
X4503682Y-7394484D01*
X4503682Y-7394484D02*
X4522729Y-7404008D01*
X4522729Y-7404008D02*
X4532253Y-7413531D01*
X4532253Y-7413531D02*
X4541777Y-7432579D01*
X4541777Y-7432579D02*
X4551301Y-7470674D01*
X4551301Y-7470674D02*
X4551301Y-7518293D01*
X4551301Y-7518293D02*
X4541777Y-7556388D01*
X4541777Y-7556388D02*
X4532253Y-7575436D01*
X4532253Y-7575436D02*
X4522729Y-7584960D01*
X4522729Y-7584960D02*
X4503682Y-7594484D01*
X4503682Y-7594484D02*
X4484634Y-7594484D01*
X4484634Y-7594484D02*
X4465587Y-7584960D01*
X4465587Y-7584960D02*
X4456063Y-7575436D01*
X4456063Y-7575436D02*
X4446539Y-7556388D01*
X4446539Y-7556388D02*
X4437015Y-7518293D01*
X4437015Y-7518293D02*
X4437015Y-7470674D01*
X4437015Y-7470674D02*
X4446539Y-7432579D01*
X4446539Y-7432579D02*
X4456063Y-7413531D01*
X4456063Y-7413531D02*
X4465587Y-7404008D01*
X4465587Y-7404008D02*
X4484634Y-7394484D01*
X4637015Y-7575436D02*
X4646539Y-7584960D01*
X4646539Y-7584960D02*
X4637015Y-7594484D01*
X4637015Y-7594484D02*
X4627491Y-7584960D01*
X4627491Y-7584960D02*
X4637015Y-7575436D01*
X4637015Y-7575436D02*
X4637015Y-7594484D01*
X4770348Y-7394484D02*
X4789396Y-7394484D01*
X4789396Y-7394484D02*
X4808444Y-7404008D01*
X4808444Y-7404008D02*
X4817968Y-7413531D01*
X4817968Y-7413531D02*
X4827491Y-7432579D01*
X4827491Y-7432579D02*
X4837015Y-7470674D01*
X4837015Y-7470674D02*
X4837015Y-7518293D01*
X4837015Y-7518293D02*
X4827491Y-7556388D01*
X4827491Y-7556388D02*
X4817968Y-7575436D01*
X4817968Y-7575436D02*
X4808444Y-7584960D01*
X4808444Y-7584960D02*
X4789396Y-7594484D01*
X4789396Y-7594484D02*
X4770348Y-7594484D01*
X4770348Y-7594484D02*
X4751301Y-7584960D01*
X4751301Y-7584960D02*
X4741777Y-7575436D01*
X4741777Y-7575436D02*
X4732253Y-7556388D01*
X4732253Y-7556388D02*
X4722729Y-7518293D01*
X4722729Y-7518293D02*
X4722729Y-7470674D01*
X4722729Y-7470674D02*
X4732253Y-7432579D01*
X4732253Y-7432579D02*
X4741777Y-7413531D01*
X4741777Y-7413531D02*
X4751301Y-7404008D01*
X4751301Y-7404008D02*
X4770348Y-7394484D01*
X4913206Y-7413531D02*
X4922729Y-7404008D01*
X4922729Y-7404008D02*
X4941777Y-7394484D01*
X4941777Y-7394484D02*
X4989396Y-7394484D01*
X4989396Y-7394484D02*
X5008444Y-7404008D01*
X5008444Y-7404008D02*
X5017968Y-7413531D01*
X5017968Y-7413531D02*
X5027491Y-7432579D01*
X5027491Y-7432579D02*
X5027491Y-7451627D01*
X5027491Y-7451627D02*
X5017968Y-7480198D01*
X5017968Y-7480198D02*
X4903682Y-7594484D01*
X4903682Y-7594484D02*
X5027491Y-7594484D01*
X5094158Y-7394484D02*
X5227491Y-7394484D01*
X5227491Y-7394484D02*
X5141777Y-7594484D01*
X5389396Y-7394484D02*
X5351301Y-7394484D01*
X5351301Y-7394484D02*
X5332253Y-7404008D01*
X5332253Y-7404008D02*
X5322729Y-7413531D01*
X5322729Y-7413531D02*
X5303682Y-7442103D01*
X5303682Y-7442103D02*
X5294158Y-7480198D01*
X5294158Y-7480198D02*
X5294158Y-7556388D01*
X5294158Y-7556388D02*
X5303682Y-7575436D01*
X5303682Y-7575436D02*
X5313206Y-7584960D01*
X5313206Y-7584960D02*
X5332253Y-7594484D01*
X5332253Y-7594484D02*
X5370349Y-7594484D01*
X5370349Y-7594484D02*
X5389396Y-7584960D01*
X5389396Y-7584960D02*
X5398920Y-7575436D01*
X5398920Y-7575436D02*
X5408444Y-7556388D01*
X5408444Y-7556388D02*
X5408444Y-7508769D01*
X5408444Y-7508769D02*
X5398920Y-7489722D01*
X5398920Y-7489722D02*
X5389396Y-7480198D01*
X5389396Y-7480198D02*
X5370349Y-7470674D01*
X5370349Y-7470674D02*
X5332253Y-7470674D01*
X5332253Y-7470674D02*
X5313206Y-7480198D01*
X5313206Y-7480198D02*
X5303682Y-7489722D01*
X5303682Y-7489722D02*
X5294158Y-7508769D01*
X5484634Y-7394484D02*
X5484634Y-7432579D01*
X5560825Y-7394484D02*
X5560825Y-7432579D01*
X5856063Y-7670674D02*
X5846539Y-7661150D01*
X5846539Y-7661150D02*
X5827491Y-7632579D01*
X5827491Y-7632579D02*
X5817968Y-7613531D01*
X5817968Y-7613531D02*
X5808444Y-7584960D01*
X5808444Y-7584960D02*
X5798920Y-7537341D01*
X5798920Y-7537341D02*
X5798920Y-7499246D01*
X5798920Y-7499246D02*
X5808444Y-7451627D01*
X5808444Y-7451627D02*
X5817968Y-7423055D01*
X5817968Y-7423055D02*
X5827491Y-7404008D01*
X5827491Y-7404008D02*
X5846539Y-7375436D01*
X5846539Y-7375436D02*
X5856063Y-7365912D01*
X6037015Y-7594484D02*
X5922729Y-7594484D01*
X5979872Y-7594484D02*
X5979872Y-7394484D01*
X5979872Y-7394484D02*
X5960825Y-7423055D01*
X5960825Y-7423055D02*
X5941777Y-7442103D01*
X5941777Y-7442103D02*
X5922729Y-7451627D01*
X6208444Y-7394484D02*
X6170348Y-7394484D01*
X6170348Y-7394484D02*
X6151301Y-7404008D01*
X6151301Y-7404008D02*
X6141777Y-7413531D01*
X6141777Y-7413531D02*
X6122729Y-7442103D01*
X6122729Y-7442103D02*
X6113206Y-7480198D01*
X6113206Y-7480198D02*
X6113206Y-7556388D01*
X6113206Y-7556388D02*
X6122729Y-7575436D01*
X6122729Y-7575436D02*
X6132253Y-7584960D01*
X6132253Y-7584960D02*
X6151301Y-7594484D01*
X6151301Y-7594484D02*
X6189396Y-7594484D01*
X6189396Y-7594484D02*
X6208444Y-7584960D01*
X6208444Y-7584960D02*
X6217968Y-7575436D01*
X6217968Y-7575436D02*
X6227491Y-7556388D01*
X6227491Y-7556388D02*
X6227491Y-7508769D01*
X6227491Y-7508769D02*
X6217968Y-7489722D01*
X6217968Y-7489722D02*
X6208444Y-7480198D01*
X6208444Y-7480198D02*
X6189396Y-7470674D01*
X6189396Y-7470674D02*
X6151301Y-7470674D01*
X6151301Y-7470674D02*
X6132253Y-7480198D01*
X6132253Y-7480198D02*
X6122729Y-7489722D01*
X6122729Y-7489722D02*
X6113206Y-7508769D01*
X6465587Y-7594484D02*
X6465587Y-7394484D01*
X6551301Y-7594484D02*
X6551301Y-7489722D01*
X6551301Y-7489722D02*
X6541777Y-7470674D01*
X6541777Y-7470674D02*
X6522730Y-7461150D01*
X6522730Y-7461150D02*
X6494158Y-7461150D01*
X6494158Y-7461150D02*
X6475110Y-7470674D01*
X6475110Y-7470674D02*
X6465587Y-7480198D01*
X6675110Y-7594484D02*
X6656063Y-7584960D01*
X6656063Y-7584960D02*
X6646539Y-7575436D01*
X6646539Y-7575436D02*
X6637015Y-7556388D01*
X6637015Y-7556388D02*
X6637015Y-7499246D01*
X6637015Y-7499246D02*
X6646539Y-7480198D01*
X6646539Y-7480198D02*
X6656063Y-7470674D01*
X6656063Y-7470674D02*
X6675110Y-7461150D01*
X6675110Y-7461150D02*
X6703682Y-7461150D01*
X6703682Y-7461150D02*
X6722730Y-7470674D01*
X6722730Y-7470674D02*
X6732253Y-7480198D01*
X6732253Y-7480198D02*
X6741777Y-7499246D01*
X6741777Y-7499246D02*
X6741777Y-7556388D01*
X6741777Y-7556388D02*
X6732253Y-7575436D01*
X6732253Y-7575436D02*
X6722730Y-7584960D01*
X6722730Y-7584960D02*
X6703682Y-7594484D01*
X6703682Y-7594484D02*
X6675110Y-7594484D01*
X6856063Y-7594484D02*
X6837015Y-7584960D01*
X6837015Y-7584960D02*
X6827491Y-7565912D01*
X6827491Y-7565912D02*
X6827491Y-7394484D01*
X7008444Y-7584960D02*
X6989396Y-7594484D01*
X6989396Y-7594484D02*
X6951301Y-7594484D01*
X6951301Y-7594484D02*
X6932253Y-7584960D01*
X6932253Y-7584960D02*
X6922730Y-7565912D01*
X6922730Y-7565912D02*
X6922730Y-7489722D01*
X6922730Y-7489722D02*
X6932253Y-7470674D01*
X6932253Y-7470674D02*
X6951301Y-7461150D01*
X6951301Y-7461150D02*
X6989396Y-7461150D01*
X6989396Y-7461150D02*
X7008444Y-7470674D01*
X7008444Y-7470674D02*
X7017968Y-7489722D01*
X7017968Y-7489722D02*
X7017968Y-7508769D01*
X7017968Y-7508769D02*
X6922730Y-7527817D01*
X7094158Y-7584960D02*
X7113206Y-7594484D01*
X7113206Y-7594484D02*
X7151301Y-7594484D01*
X7151301Y-7594484D02*
X7170349Y-7584960D01*
X7170349Y-7584960D02*
X7179872Y-7565912D01*
X7179872Y-7565912D02*
X7179872Y-7556388D01*
X7179872Y-7556388D02*
X7170349Y-7537341D01*
X7170349Y-7537341D02*
X7151301Y-7527817D01*
X7151301Y-7527817D02*
X7122730Y-7527817D01*
X7122730Y-7527817D02*
X7103682Y-7518293D01*
X7103682Y-7518293D02*
X7094158Y-7499246D01*
X7094158Y-7499246D02*
X7094158Y-7489722D01*
X7094158Y-7489722D02*
X7103682Y-7470674D01*
X7103682Y-7470674D02*
X7122730Y-7461150D01*
X7122730Y-7461150D02*
X7151301Y-7461150D01*
X7151301Y-7461150D02*
X7170349Y-7470674D01*
X7246539Y-7670674D02*
X7256063Y-7661150D01*
X7256063Y-7661150D02*
X7275111Y-7632579D01*
X7275111Y-7632579D02*
X7284634Y-7613531D01*
X7284634Y-7613531D02*
X7294158Y-7584960D01*
X7294158Y-7584960D02*
X7303682Y-7537341D01*
X7303682Y-7537341D02*
X7303682Y-7499246D01*
X7303682Y-7499246D02*
X7294158Y-7451627D01*
X7294158Y-7451627D02*
X7284634Y-7423055D01*
X7284634Y-7423055D02*
X7275111Y-7404008D01*
X7275111Y-7404008D02*
X7256063Y-7375436D01*
X7256063Y-7375436D02*
X7246539Y-7365912D01*
D10*
X2281000Y-7767000D02*
G75*
G03*
X2181000Y-7767000I-50000J0D01*
G01*
X2181000Y-7767000D02*
G75*
G03*
X2281000Y-7767000I50000J0D01*
G01*
D11*
X2646539Y-7858484D02*
X2532253Y-7858484D01*
X2589396Y-7858484D02*
X2589396Y-7658484D01*
X2589396Y-7658484D02*
X2570348Y-7687055D01*
X2570348Y-7687055D02*
X2551301Y-7706103D01*
X2551301Y-7706103D02*
X2532253Y-7715627D01*
X2732253Y-7839436D02*
X2741777Y-7848960D01*
X2741777Y-7848960D02*
X2732253Y-7858484D01*
X2732253Y-7858484D02*
X2722729Y-7848960D01*
X2722729Y-7848960D02*
X2732253Y-7839436D01*
X2732253Y-7839436D02*
X2732253Y-7858484D01*
X2865586Y-7658484D02*
X2884634Y-7658484D01*
X2884634Y-7658484D02*
X2903682Y-7668008D01*
X2903682Y-7668008D02*
X2913205Y-7677531D01*
X2913205Y-7677531D02*
X2922729Y-7696579D01*
X2922729Y-7696579D02*
X2932253Y-7734674D01*
X2932253Y-7734674D02*
X2932253Y-7782293D01*
X2932253Y-7782293D02*
X2922729Y-7820388D01*
X2922729Y-7820388D02*
X2913205Y-7839436D01*
X2913205Y-7839436D02*
X2903682Y-7848960D01*
X2903682Y-7848960D02*
X2884634Y-7858484D01*
X2884634Y-7858484D02*
X2865586Y-7858484D01*
X2865586Y-7858484D02*
X2846539Y-7848960D01*
X2846539Y-7848960D02*
X2837015Y-7839436D01*
X2837015Y-7839436D02*
X2827491Y-7820388D01*
X2827491Y-7820388D02*
X2817967Y-7782293D01*
X2817967Y-7782293D02*
X2817967Y-7734674D01*
X2817967Y-7734674D02*
X2827491Y-7696579D01*
X2827491Y-7696579D02*
X2837015Y-7677531D01*
X2837015Y-7677531D02*
X2846539Y-7668008D01*
X2846539Y-7668008D02*
X2865586Y-7658484D01*
X3056062Y-7658484D02*
X3075110Y-7658484D01*
X3075110Y-7658484D02*
X3094158Y-7668008D01*
X3094158Y-7668008D02*
X3103682Y-7677531D01*
X3103682Y-7677531D02*
X3113205Y-7696579D01*
X3113205Y-7696579D02*
X3122729Y-7734674D01*
X3122729Y-7734674D02*
X3122729Y-7782293D01*
X3122729Y-7782293D02*
X3113205Y-7820388D01*
X3113205Y-7820388D02*
X3103682Y-7839436D01*
X3103682Y-7839436D02*
X3094158Y-7848960D01*
X3094158Y-7848960D02*
X3075110Y-7858484D01*
X3075110Y-7858484D02*
X3056062Y-7858484D01*
X3056062Y-7858484D02*
X3037015Y-7848960D01*
X3037015Y-7848960D02*
X3027491Y-7839436D01*
X3027491Y-7839436D02*
X3017967Y-7820388D01*
X3017967Y-7820388D02*
X3008443Y-7782293D01*
X3008443Y-7782293D02*
X3008443Y-7734674D01*
X3008443Y-7734674D02*
X3017967Y-7696579D01*
X3017967Y-7696579D02*
X3027491Y-7677531D01*
X3027491Y-7677531D02*
X3037015Y-7668008D01*
X3037015Y-7668008D02*
X3056062Y-7658484D01*
X3246539Y-7658484D02*
X3265586Y-7658484D01*
X3265586Y-7658484D02*
X3284634Y-7668008D01*
X3284634Y-7668008D02*
X3294158Y-7677531D01*
X3294158Y-7677531D02*
X3303682Y-7696579D01*
X3303682Y-7696579D02*
X3313205Y-7734674D01*
X3313205Y-7734674D02*
X3313205Y-7782293D01*
X3313205Y-7782293D02*
X3303682Y-7820388D01*
X3303682Y-7820388D02*
X3294158Y-7839436D01*
X3294158Y-7839436D02*
X3284634Y-7848960D01*
X3284634Y-7848960D02*
X3265586Y-7858484D01*
X3265586Y-7858484D02*
X3246539Y-7858484D01*
X3246539Y-7858484D02*
X3227491Y-7848960D01*
X3227491Y-7848960D02*
X3217967Y-7839436D01*
X3217967Y-7839436D02*
X3208443Y-7820388D01*
X3208443Y-7820388D02*
X3198920Y-7782293D01*
X3198920Y-7782293D02*
X3198920Y-7734674D01*
X3198920Y-7734674D02*
X3208443Y-7696579D01*
X3208443Y-7696579D02*
X3217967Y-7677531D01*
X3217967Y-7677531D02*
X3227491Y-7668008D01*
X3227491Y-7668008D02*
X3246539Y-7658484D01*
X3398920Y-7858484D02*
X3398920Y-7725150D01*
X3398920Y-7744198D02*
X3408443Y-7734674D01*
X3408443Y-7734674D02*
X3427491Y-7725150D01*
X3427491Y-7725150D02*
X3456063Y-7725150D01*
X3456063Y-7725150D02*
X3475110Y-7734674D01*
X3475110Y-7734674D02*
X3484634Y-7753722D01*
X3484634Y-7753722D02*
X3484634Y-7858484D01*
X3484634Y-7753722D02*
X3494158Y-7734674D01*
X3494158Y-7734674D02*
X3513205Y-7725150D01*
X3513205Y-7725150D02*
X3541777Y-7725150D01*
X3541777Y-7725150D02*
X3560824Y-7734674D01*
X3560824Y-7734674D02*
X3570348Y-7753722D01*
X3570348Y-7753722D02*
X3570348Y-7858484D01*
X3665586Y-7858484D02*
X3665586Y-7725150D01*
X3665586Y-7744198D02*
X3675110Y-7734674D01*
X3675110Y-7734674D02*
X3694158Y-7725150D01*
X3694158Y-7725150D02*
X3722729Y-7725150D01*
X3722729Y-7725150D02*
X3741777Y-7734674D01*
X3741777Y-7734674D02*
X3751301Y-7753722D01*
X3751301Y-7753722D02*
X3751301Y-7858484D01*
X3751301Y-7753722D02*
X3760824Y-7734674D01*
X3760824Y-7734674D02*
X3779872Y-7725150D01*
X3779872Y-7725150D02*
X3808443Y-7725150D01*
X3808443Y-7725150D02*
X3827491Y-7734674D01*
X3827491Y-7734674D02*
X3837015Y-7753722D01*
X3837015Y-7753722D02*
X3837015Y-7858484D01*
X4227491Y-7648960D02*
X4056063Y-7906103D01*
X4484634Y-7658484D02*
X4503682Y-7658484D01*
X4503682Y-7658484D02*
X4522729Y-7668008D01*
X4522729Y-7668008D02*
X4532253Y-7677531D01*
X4532253Y-7677531D02*
X4541777Y-7696579D01*
X4541777Y-7696579D02*
X4551301Y-7734674D01*
X4551301Y-7734674D02*
X4551301Y-7782293D01*
X4551301Y-7782293D02*
X4541777Y-7820388D01*
X4541777Y-7820388D02*
X4532253Y-7839436D01*
X4532253Y-7839436D02*
X4522729Y-7848960D01*
X4522729Y-7848960D02*
X4503682Y-7858484D01*
X4503682Y-7858484D02*
X4484634Y-7858484D01*
X4484634Y-7858484D02*
X4465587Y-7848960D01*
X4465587Y-7848960D02*
X4456063Y-7839436D01*
X4456063Y-7839436D02*
X4446539Y-7820388D01*
X4446539Y-7820388D02*
X4437015Y-7782293D01*
X4437015Y-7782293D02*
X4437015Y-7734674D01*
X4437015Y-7734674D02*
X4446539Y-7696579D01*
X4446539Y-7696579D02*
X4456063Y-7677531D01*
X4456063Y-7677531D02*
X4465587Y-7668008D01*
X4465587Y-7668008D02*
X4484634Y-7658484D01*
X4637015Y-7839436D02*
X4646539Y-7848960D01*
X4646539Y-7848960D02*
X4637015Y-7858484D01*
X4637015Y-7858484D02*
X4627491Y-7848960D01*
X4627491Y-7848960D02*
X4637015Y-7839436D01*
X4637015Y-7839436D02*
X4637015Y-7858484D01*
X4770348Y-7658484D02*
X4789396Y-7658484D01*
X4789396Y-7658484D02*
X4808444Y-7668008D01*
X4808444Y-7668008D02*
X4817968Y-7677531D01*
X4817968Y-7677531D02*
X4827491Y-7696579D01*
X4827491Y-7696579D02*
X4837015Y-7734674D01*
X4837015Y-7734674D02*
X4837015Y-7782293D01*
X4837015Y-7782293D02*
X4827491Y-7820388D01*
X4827491Y-7820388D02*
X4817968Y-7839436D01*
X4817968Y-7839436D02*
X4808444Y-7848960D01*
X4808444Y-7848960D02*
X4789396Y-7858484D01*
X4789396Y-7858484D02*
X4770348Y-7858484D01*
X4770348Y-7858484D02*
X4751301Y-7848960D01*
X4751301Y-7848960D02*
X4741777Y-7839436D01*
X4741777Y-7839436D02*
X4732253Y-7820388D01*
X4732253Y-7820388D02*
X4722729Y-7782293D01*
X4722729Y-7782293D02*
X4722729Y-7734674D01*
X4722729Y-7734674D02*
X4732253Y-7696579D01*
X4732253Y-7696579D02*
X4741777Y-7677531D01*
X4741777Y-7677531D02*
X4751301Y-7668008D01*
X4751301Y-7668008D02*
X4770348Y-7658484D01*
X4903682Y-7658484D02*
X5027491Y-7658484D01*
X5027491Y-7658484D02*
X4960825Y-7734674D01*
X4960825Y-7734674D02*
X4989396Y-7734674D01*
X4989396Y-7734674D02*
X5008444Y-7744198D01*
X5008444Y-7744198D02*
X5017968Y-7753722D01*
X5017968Y-7753722D02*
X5027491Y-7772769D01*
X5027491Y-7772769D02*
X5027491Y-7820388D01*
X5027491Y-7820388D02*
X5017968Y-7839436D01*
X5017968Y-7839436D02*
X5008444Y-7848960D01*
X5008444Y-7848960D02*
X4989396Y-7858484D01*
X4989396Y-7858484D02*
X4932253Y-7858484D01*
X4932253Y-7858484D02*
X4913206Y-7848960D01*
X4913206Y-7848960D02*
X4903682Y-7839436D01*
X5122729Y-7858484D02*
X5160825Y-7858484D01*
X5160825Y-7858484D02*
X5179872Y-7848960D01*
X5179872Y-7848960D02*
X5189396Y-7839436D01*
X5189396Y-7839436D02*
X5208444Y-7810865D01*
X5208444Y-7810865D02*
X5217968Y-7772769D01*
X5217968Y-7772769D02*
X5217968Y-7696579D01*
X5217968Y-7696579D02*
X5208444Y-7677531D01*
X5208444Y-7677531D02*
X5198920Y-7668008D01*
X5198920Y-7668008D02*
X5179872Y-7658484D01*
X5179872Y-7658484D02*
X5141777Y-7658484D01*
X5141777Y-7658484D02*
X5122729Y-7668008D01*
X5122729Y-7668008D02*
X5113206Y-7677531D01*
X5113206Y-7677531D02*
X5103682Y-7696579D01*
X5103682Y-7696579D02*
X5103682Y-7744198D01*
X5103682Y-7744198D02*
X5113206Y-7763246D01*
X5113206Y-7763246D02*
X5122729Y-7772769D01*
X5122729Y-7772769D02*
X5141777Y-7782293D01*
X5141777Y-7782293D02*
X5179872Y-7782293D01*
X5179872Y-7782293D02*
X5198920Y-7772769D01*
X5198920Y-7772769D02*
X5208444Y-7763246D01*
X5208444Y-7763246D02*
X5217968Y-7744198D01*
X5389396Y-7725150D02*
X5389396Y-7858484D01*
X5341777Y-7648960D02*
X5294158Y-7791817D01*
X5294158Y-7791817D02*
X5417968Y-7791817D01*
X5484634Y-7658484D02*
X5484634Y-7696579D01*
X5560825Y-7658484D02*
X5560825Y-7696579D01*
X5856063Y-7934674D02*
X5846539Y-7925150D01*
X5846539Y-7925150D02*
X5827491Y-7896579D01*
X5827491Y-7896579D02*
X5817968Y-7877531D01*
X5817968Y-7877531D02*
X5808444Y-7848960D01*
X5808444Y-7848960D02*
X5798920Y-7801341D01*
X5798920Y-7801341D02*
X5798920Y-7763246D01*
X5798920Y-7763246D02*
X5808444Y-7715627D01*
X5808444Y-7715627D02*
X5817968Y-7687055D01*
X5817968Y-7687055D02*
X5827491Y-7668008D01*
X5827491Y-7668008D02*
X5846539Y-7639436D01*
X5846539Y-7639436D02*
X5856063Y-7629912D01*
X5913206Y-7658484D02*
X6037015Y-7658484D01*
X6037015Y-7658484D02*
X5970348Y-7734674D01*
X5970348Y-7734674D02*
X5998920Y-7734674D01*
X5998920Y-7734674D02*
X6017968Y-7744198D01*
X6017968Y-7744198D02*
X6027491Y-7753722D01*
X6027491Y-7753722D02*
X6037015Y-7772769D01*
X6037015Y-7772769D02*
X6037015Y-7820388D01*
X6037015Y-7820388D02*
X6027491Y-7839436D01*
X6027491Y-7839436D02*
X6017968Y-7848960D01*
X6017968Y-7848960D02*
X5998920Y-7858484D01*
X5998920Y-7858484D02*
X5941777Y-7858484D01*
X5941777Y-7858484D02*
X5922729Y-7848960D01*
X5922729Y-7848960D02*
X5913206Y-7839436D01*
X6113206Y-7677531D02*
X6122729Y-7668008D01*
X6122729Y-7668008D02*
X6141777Y-7658484D01*
X6141777Y-7658484D02*
X6189396Y-7658484D01*
X6189396Y-7658484D02*
X6208444Y-7668008D01*
X6208444Y-7668008D02*
X6217968Y-7677531D01*
X6217968Y-7677531D02*
X6227491Y-7696579D01*
X6227491Y-7696579D02*
X6227491Y-7715627D01*
X6227491Y-7715627D02*
X6217968Y-7744198D01*
X6217968Y-7744198D02*
X6103682Y-7858484D01*
X6103682Y-7858484D02*
X6227491Y-7858484D01*
X6465587Y-7858484D02*
X6465587Y-7658484D01*
X6551301Y-7858484D02*
X6551301Y-7753722D01*
X6551301Y-7753722D02*
X6541777Y-7734674D01*
X6541777Y-7734674D02*
X6522730Y-7725150D01*
X6522730Y-7725150D02*
X6494158Y-7725150D01*
X6494158Y-7725150D02*
X6475110Y-7734674D01*
X6475110Y-7734674D02*
X6465587Y-7744198D01*
X6675110Y-7858484D02*
X6656063Y-7848960D01*
X6656063Y-7848960D02*
X6646539Y-7839436D01*
X6646539Y-7839436D02*
X6637015Y-7820388D01*
X6637015Y-7820388D02*
X6637015Y-7763246D01*
X6637015Y-7763246D02*
X6646539Y-7744198D01*
X6646539Y-7744198D02*
X6656063Y-7734674D01*
X6656063Y-7734674D02*
X6675110Y-7725150D01*
X6675110Y-7725150D02*
X6703682Y-7725150D01*
X6703682Y-7725150D02*
X6722730Y-7734674D01*
X6722730Y-7734674D02*
X6732253Y-7744198D01*
X6732253Y-7744198D02*
X6741777Y-7763246D01*
X6741777Y-7763246D02*
X6741777Y-7820388D01*
X6741777Y-7820388D02*
X6732253Y-7839436D01*
X6732253Y-7839436D02*
X6722730Y-7848960D01*
X6722730Y-7848960D02*
X6703682Y-7858484D01*
X6703682Y-7858484D02*
X6675110Y-7858484D01*
X6856063Y-7858484D02*
X6837015Y-7848960D01*
X6837015Y-7848960D02*
X6827491Y-7829912D01*
X6827491Y-7829912D02*
X6827491Y-7658484D01*
X7008444Y-7848960D02*
X6989396Y-7858484D01*
X6989396Y-7858484D02*
X6951301Y-7858484D01*
X6951301Y-7858484D02*
X6932253Y-7848960D01*
X6932253Y-7848960D02*
X6922730Y-7829912D01*
X6922730Y-7829912D02*
X6922730Y-7753722D01*
X6922730Y-7753722D02*
X6932253Y-7734674D01*
X6932253Y-7734674D02*
X6951301Y-7725150D01*
X6951301Y-7725150D02*
X6989396Y-7725150D01*
X6989396Y-7725150D02*
X7008444Y-7734674D01*
X7008444Y-7734674D02*
X7017968Y-7753722D01*
X7017968Y-7753722D02*
X7017968Y-7772769D01*
X7017968Y-7772769D02*
X6922730Y-7791817D01*
X7094158Y-7848960D02*
X7113206Y-7858484D01*
X7113206Y-7858484D02*
X7151301Y-7858484D01*
X7151301Y-7858484D02*
X7170349Y-7848960D01*
X7170349Y-7848960D02*
X7179872Y-7829912D01*
X7179872Y-7829912D02*
X7179872Y-7820388D01*
X7179872Y-7820388D02*
X7170349Y-7801341D01*
X7170349Y-7801341D02*
X7151301Y-7791817D01*
X7151301Y-7791817D02*
X7122730Y-7791817D01*
X7122730Y-7791817D02*
X7103682Y-7782293D01*
X7103682Y-7782293D02*
X7094158Y-7763246D01*
X7094158Y-7763246D02*
X7094158Y-7753722D01*
X7094158Y-7753722D02*
X7103682Y-7734674D01*
X7103682Y-7734674D02*
X7122730Y-7725150D01*
X7122730Y-7725150D02*
X7151301Y-7725150D01*
X7151301Y-7725150D02*
X7170349Y-7734674D01*
X7246539Y-7934674D02*
X7256063Y-7925150D01*
X7256063Y-7925150D02*
X7275111Y-7896579D01*
X7275111Y-7896579D02*
X7284634Y-7877531D01*
X7284634Y-7877531D02*
X7294158Y-7848960D01*
X7294158Y-7848960D02*
X7303682Y-7801341D01*
X7303682Y-7801341D02*
X7303682Y-7763246D01*
X7303682Y-7763246D02*
X7294158Y-7715627D01*
X7294158Y-7715627D02*
X7284634Y-7687055D01*
X7284634Y-7687055D02*
X7275111Y-7668008D01*
X7275111Y-7668008D02*
X7256063Y-7639436D01*
X7256063Y-7639436D02*
X7246539Y-7629912D01*
M02*
