G04 #@! TF.GenerationSoftware,KiCad,Pcbnew,7.0.10*
G04 #@! TF.CreationDate,2024-03-09T15:17:19+01:00*
G04 #@! TF.ProjectId,Lamp Matrix Tester,4c616d70-204d-4617-9472-697820546573,1.0*
G04 #@! TF.SameCoordinates,Original*
G04 #@! TF.FileFunction,Copper,L1,Top*
G04 #@! TF.FilePolarity,Positive*
%FSLAX46Y46*%
G04 Gerber Fmt 4.6, Leading zero omitted, Abs format (unit mm)*
G04 Created by KiCad (PCBNEW 7.0.10) date 2024-03-09 15:17:19*
%MOMM*%
%LPD*%
G01*
G04 APERTURE LIST*
G04 #@! TA.AperFunction,ComponentPad*
%ADD10C,1.400000*%
G04 #@! TD*
G04 #@! TA.AperFunction,ComponentPad*
%ADD11O,1.400000X1.400000*%
G04 #@! TD*
G04 #@! TA.AperFunction,ComponentPad*
%ADD12R,1.700000X1.700000*%
G04 #@! TD*
G04 #@! TA.AperFunction,ComponentPad*
%ADD13O,1.700000X1.700000*%
G04 #@! TD*
G04 #@! TA.AperFunction,Conductor*
%ADD14C,0.250000*%
G04 #@! TD*
G04 APERTURE END LIST*
D10*
X57150000Y-40860001D03*
D11*
X57150000Y-48480001D03*
D10*
X54610000Y-51720001D03*
D11*
X54610000Y-59340001D03*
D10*
X44450000Y-40860000D03*
D11*
X44450000Y-48480000D03*
D10*
X39370000Y-59340001D03*
D11*
X39370000Y-51720001D03*
X41910000Y-59340001D03*
D10*
X41910000Y-51720001D03*
X49530000Y-40860001D03*
D11*
X49530000Y-48480001D03*
D10*
X57150000Y-51720001D03*
D11*
X57150000Y-59340001D03*
D10*
X49530000Y-51720001D03*
D11*
X49530000Y-59340001D03*
D12*
X26670000Y-27940000D03*
D13*
X29210000Y-27940000D03*
X31750000Y-27940000D03*
X34290000Y-27940000D03*
X36830000Y-27940000D03*
X39370000Y-27940000D03*
X41910000Y-27940000D03*
X44450000Y-27940000D03*
D12*
X52070000Y-27940000D03*
D13*
X54610000Y-27940000D03*
X57150000Y-27940000D03*
X59690000Y-27940000D03*
X62230000Y-27940000D03*
X64770000Y-27940000D03*
X67310000Y-27940000D03*
X69850000Y-27940000D03*
D12*
X39370000Y-62100000D03*
D13*
X41910000Y-62100000D03*
X44450000Y-62100000D03*
X46990000Y-62100000D03*
X49530000Y-62100000D03*
X52070000Y-62100000D03*
X54610000Y-62100000D03*
X57150000Y-62100000D03*
X57150000Y-38100000D03*
X54610000Y-38100000D03*
X52070000Y-38100000D03*
X49530000Y-38100000D03*
X46990000Y-38100000D03*
X44450000Y-38100000D03*
X41910000Y-38100000D03*
X39370000Y-38100000D03*
D14*
X45720000Y-26670000D02*
X54610000Y-35560000D01*
X54610000Y-35560000D02*
X54610000Y-38100000D01*
X35560000Y-26670000D02*
X45720000Y-26670000D01*
X34290000Y-27940000D02*
X35560000Y-26670000D01*
X69850000Y-33022792D02*
X69850000Y-33020000D01*
X49530000Y-51720001D02*
X51152791Y-51720001D01*
X69850000Y-33020000D02*
X69850000Y-27940000D01*
X51152791Y-51720001D02*
X69850000Y-33022792D01*
X51541395Y-50695001D02*
X67310000Y-34926396D01*
X42935000Y-50695001D02*
X51541395Y-50695001D01*
X67310000Y-34926396D02*
X67310000Y-34290000D01*
X67310000Y-34290000D02*
X67310000Y-27940000D01*
X41910000Y-51720001D02*
X42935000Y-50695001D01*
X62230000Y-39370000D02*
X62230000Y-27940000D01*
X51354999Y-50245001D02*
X62230000Y-39370000D01*
X40845000Y-50245001D02*
X51354999Y-50245001D01*
X39370000Y-51720001D02*
X40845000Y-50245001D01*
X51720001Y-46290000D02*
X53340000Y-46290000D01*
X53340000Y-46290000D02*
X54673604Y-46290000D01*
X49530000Y-48480001D02*
X51720001Y-46290000D01*
X57150000Y-38100000D02*
X57150000Y-40860001D01*
X49530000Y-38100000D02*
X49530000Y-40860001D01*
X44450000Y-38100000D02*
X44450000Y-40860000D01*
X57150000Y-59340001D02*
X57150000Y-62100000D01*
X54610000Y-59340001D02*
X54610000Y-62100000D01*
X49530000Y-59340001D02*
X49530000Y-62100000D01*
X41910000Y-59340001D02*
X41910000Y-62100000D01*
X39370000Y-59340001D02*
X39370000Y-62100000D01*
X40640000Y-30480000D02*
X46990000Y-36830000D01*
X26670000Y-27940000D02*
X26670000Y-29210000D01*
X27940000Y-30480000D02*
X40640000Y-30480000D01*
X26670000Y-29210000D02*
X27940000Y-30480000D01*
X46990000Y-36830000D02*
X46990000Y-38100000D01*
X54610000Y-36830000D02*
X54610000Y-38100000D01*
X45720000Y-30480000D02*
X52070000Y-36830000D01*
X39370000Y-27940000D02*
X41910000Y-30480000D01*
X41910000Y-30480000D02*
X45720000Y-30480000D01*
X52070000Y-36830000D02*
X52070000Y-38100000D01*
X54673604Y-46290000D02*
X55561802Y-45401802D01*
X59690000Y-41273604D02*
X59690000Y-27940000D01*
X55243604Y-45720000D02*
X59690000Y-41273604D01*
M02*
