%TF.GenerationSoftware,KiCad,Pcbnew,7.0.10*%
%TF.CreationDate,2024-03-09T15:17:23+01:00*%
%TF.ProjectId,Lamp Matrix Tester,4c616d70-204d-4617-9472-697820546573,1.0*%
%TF.SameCoordinates,Original*%
%TF.FileFunction,Drillmap*%
%TF.FilePolarity,Positive*%
%FSLAX45Y45*%
G04 Gerber Fmt 4.5, Leading zero omitted, Abs format (unit mm)*
G04 Created by KiCad (PCBNEW 7.0.10) date 2024-03-09 15:17:23*
%MOMM*%
%LPD*%
G01*
G04 APERTURE LIST*
%ADD10C,0.100000*%
%ADD11C,0.200000*%
G04 APERTURE END LIST*
D10*
X2286000Y-1524000D02*
X7366000Y-1524000D01*
X7366000Y-6858000D01*
X2286000Y-6858000D01*
X2286000Y-1524000D01*
D11*
X2541777Y-7174484D02*
X2541777Y-6974484D01*
X2541777Y-6974484D02*
X2589396Y-6974484D01*
X2589396Y-6974484D02*
X2617967Y-6984008D01*
X2617967Y-6984008D02*
X2637015Y-7003055D01*
X2637015Y-7003055D02*
X2646539Y-7022103D01*
X2646539Y-7022103D02*
X2656063Y-7060198D01*
X2656063Y-7060198D02*
X2656063Y-7088769D01*
X2656063Y-7088769D02*
X2646539Y-7126865D01*
X2646539Y-7126865D02*
X2637015Y-7145912D01*
X2637015Y-7145912D02*
X2617967Y-7164960D01*
X2617967Y-7164960D02*
X2589396Y-7174484D01*
X2589396Y-7174484D02*
X2541777Y-7174484D01*
X2741777Y-7174484D02*
X2741777Y-7041150D01*
X2741777Y-7079246D02*
X2751301Y-7060198D01*
X2751301Y-7060198D02*
X2760824Y-7050674D01*
X2760824Y-7050674D02*
X2779872Y-7041150D01*
X2779872Y-7041150D02*
X2798920Y-7041150D01*
X2865586Y-7174484D02*
X2865586Y-7041150D01*
X2865586Y-6974484D02*
X2856062Y-6984008D01*
X2856062Y-6984008D02*
X2865586Y-6993531D01*
X2865586Y-6993531D02*
X2875110Y-6984008D01*
X2875110Y-6984008D02*
X2865586Y-6974484D01*
X2865586Y-6974484D02*
X2865586Y-6993531D01*
X2989396Y-7174484D02*
X2970348Y-7164960D01*
X2970348Y-7164960D02*
X2960824Y-7145912D01*
X2960824Y-7145912D02*
X2960824Y-6974484D01*
X3094158Y-7174484D02*
X3075110Y-7164960D01*
X3075110Y-7164960D02*
X3065586Y-7145912D01*
X3065586Y-7145912D02*
X3065586Y-6974484D01*
X3322729Y-7174484D02*
X3322729Y-6974484D01*
X3322729Y-6974484D02*
X3389396Y-7117341D01*
X3389396Y-7117341D02*
X3456062Y-6974484D01*
X3456062Y-6974484D02*
X3456062Y-7174484D01*
X3637015Y-7174484D02*
X3637015Y-7069722D01*
X3637015Y-7069722D02*
X3627491Y-7050674D01*
X3627491Y-7050674D02*
X3608443Y-7041150D01*
X3608443Y-7041150D02*
X3570348Y-7041150D01*
X3570348Y-7041150D02*
X3551301Y-7050674D01*
X3637015Y-7164960D02*
X3617967Y-7174484D01*
X3617967Y-7174484D02*
X3570348Y-7174484D01*
X3570348Y-7174484D02*
X3551301Y-7164960D01*
X3551301Y-7164960D02*
X3541777Y-7145912D01*
X3541777Y-7145912D02*
X3541777Y-7126865D01*
X3541777Y-7126865D02*
X3551301Y-7107817D01*
X3551301Y-7107817D02*
X3570348Y-7098293D01*
X3570348Y-7098293D02*
X3617967Y-7098293D01*
X3617967Y-7098293D02*
X3637015Y-7088769D01*
X3732253Y-7041150D02*
X3732253Y-7241150D01*
X3732253Y-7050674D02*
X3751301Y-7041150D01*
X3751301Y-7041150D02*
X3789396Y-7041150D01*
X3789396Y-7041150D02*
X3808443Y-7050674D01*
X3808443Y-7050674D02*
X3817967Y-7060198D01*
X3817967Y-7060198D02*
X3827491Y-7079246D01*
X3827491Y-7079246D02*
X3827491Y-7136388D01*
X3827491Y-7136388D02*
X3817967Y-7155436D01*
X3817967Y-7155436D02*
X3808443Y-7164960D01*
X3808443Y-7164960D02*
X3789396Y-7174484D01*
X3789396Y-7174484D02*
X3751301Y-7174484D01*
X3751301Y-7174484D02*
X3732253Y-7164960D01*
X3913205Y-7155436D02*
X3922729Y-7164960D01*
X3922729Y-7164960D02*
X3913205Y-7174484D01*
X3913205Y-7174484D02*
X3903682Y-7164960D01*
X3903682Y-7164960D02*
X3913205Y-7155436D01*
X3913205Y-7155436D02*
X3913205Y-7174484D01*
X3913205Y-7050674D02*
X3922729Y-7060198D01*
X3922729Y-7060198D02*
X3913205Y-7069722D01*
X3913205Y-7069722D02*
X3903682Y-7060198D01*
X3903682Y-7060198D02*
X3913205Y-7050674D01*
X3913205Y-7050674D02*
X3913205Y-7069722D01*
M02*
