%TF.GenerationSoftware,KiCad,Pcbnew,8.0.0*%
%TF.CreationDate,2024-03-13T19:41:11+01:00*%
%TF.ProjectId,Lamp Matrix Tester,4c616d70-204d-4617-9472-697820546573,1.0*%
%TF.SameCoordinates,Original*%
%TF.FileFunction,Legend,Top*%
%TF.FilePolarity,Positive*%
%FSLAX46Y46*%
G04 Gerber Fmt 4.6, Leading zero omitted, Abs format (unit mm)*
G04 Created by KiCad (PCBNEW 8.0.0) date 2024-03-13 19:41:11*
%MOMM*%
%LPD*%
G01*
G04 APERTURE LIST*
%ADD10C,0.150000*%
%ADD11C,0.120000*%
%ADD12C,0.100000*%
%ADD13C,0.350000*%
G04 APERTURE END LIST*
D10*
X30349819Y-51197745D02*
X29873628Y-51531078D01*
X30349819Y-51769173D02*
X29349819Y-51769173D01*
X29349819Y-51769173D02*
X29349819Y-51388221D01*
X29349819Y-51388221D02*
X29397438Y-51292983D01*
X29397438Y-51292983D02*
X29445057Y-51245364D01*
X29445057Y-51245364D02*
X29540295Y-51197745D01*
X29540295Y-51197745D02*
X29683152Y-51197745D01*
X29683152Y-51197745D02*
X29778390Y-51245364D01*
X29778390Y-51245364D02*
X29826009Y-51292983D01*
X29826009Y-51292983D02*
X29873628Y-51388221D01*
X29873628Y-51388221D02*
X29873628Y-51769173D01*
X30349819Y-50626316D02*
X30302200Y-50721554D01*
X30302200Y-50721554D02*
X30254580Y-50769173D01*
X30254580Y-50769173D02*
X30159342Y-50816792D01*
X30159342Y-50816792D02*
X29873628Y-50816792D01*
X29873628Y-50816792D02*
X29778390Y-50769173D01*
X29778390Y-50769173D02*
X29730771Y-50721554D01*
X29730771Y-50721554D02*
X29683152Y-50626316D01*
X29683152Y-50626316D02*
X29683152Y-50483459D01*
X29683152Y-50483459D02*
X29730771Y-50388221D01*
X29730771Y-50388221D02*
X29778390Y-50340602D01*
X29778390Y-50340602D02*
X29873628Y-50292983D01*
X29873628Y-50292983D02*
X30159342Y-50292983D01*
X30159342Y-50292983D02*
X30254580Y-50340602D01*
X30254580Y-50340602D02*
X30302200Y-50388221D01*
X30302200Y-50388221D02*
X30349819Y-50483459D01*
X30349819Y-50483459D02*
X30349819Y-50626316D01*
X29683152Y-49959649D02*
X30349819Y-49769173D01*
X30349819Y-49769173D02*
X29873628Y-49578697D01*
X29873628Y-49578697D02*
X30349819Y-49388221D01*
X30349819Y-49388221D02*
X29683152Y-49197745D01*
X30302200Y-48864411D02*
X30349819Y-48769173D01*
X30349819Y-48769173D02*
X30349819Y-48578697D01*
X30349819Y-48578697D02*
X30302200Y-48483459D01*
X30302200Y-48483459D02*
X30206961Y-48435840D01*
X30206961Y-48435840D02*
X30159342Y-48435840D01*
X30159342Y-48435840D02*
X30064104Y-48483459D01*
X30064104Y-48483459D02*
X30016485Y-48578697D01*
X30016485Y-48578697D02*
X30016485Y-48721554D01*
X30016485Y-48721554D02*
X29968866Y-48816792D01*
X29968866Y-48816792D02*
X29873628Y-48864411D01*
X29873628Y-48864411D02*
X29826009Y-48864411D01*
X29826009Y-48864411D02*
X29730771Y-48816792D01*
X29730771Y-48816792D02*
X29683152Y-48721554D01*
X29683152Y-48721554D02*
X29683152Y-48578697D01*
X29683152Y-48578697D02*
X29730771Y-48483459D01*
X57127255Y-63875914D02*
X57070112Y-63847342D01*
X57070112Y-63847342D02*
X57041541Y-63818771D01*
X57041541Y-63818771D02*
X57012969Y-63761628D01*
X57012969Y-63761628D02*
X57012969Y-63733057D01*
X57012969Y-63733057D02*
X57041541Y-63675914D01*
X57041541Y-63675914D02*
X57070112Y-63647342D01*
X57070112Y-63647342D02*
X57127255Y-63618771D01*
X57127255Y-63618771D02*
X57241541Y-63618771D01*
X57241541Y-63618771D02*
X57298684Y-63647342D01*
X57298684Y-63647342D02*
X57327255Y-63675914D01*
X57327255Y-63675914D02*
X57355826Y-63733057D01*
X57355826Y-63733057D02*
X57355826Y-63761628D01*
X57355826Y-63761628D02*
X57327255Y-63818771D01*
X57327255Y-63818771D02*
X57298684Y-63847342D01*
X57298684Y-63847342D02*
X57241541Y-63875914D01*
X57241541Y-63875914D02*
X57127255Y-63875914D01*
X57127255Y-63875914D02*
X57070112Y-63904485D01*
X57070112Y-63904485D02*
X57041541Y-63933057D01*
X57041541Y-63933057D02*
X57012969Y-63990200D01*
X57012969Y-63990200D02*
X57012969Y-64104485D01*
X57012969Y-64104485D02*
X57041541Y-64161628D01*
X57041541Y-64161628D02*
X57070112Y-64190200D01*
X57070112Y-64190200D02*
X57127255Y-64218771D01*
X57127255Y-64218771D02*
X57241541Y-64218771D01*
X57241541Y-64218771D02*
X57298684Y-64190200D01*
X57298684Y-64190200D02*
X57327255Y-64161628D01*
X57327255Y-64161628D02*
X57355826Y-64104485D01*
X57355826Y-64104485D02*
X57355826Y-63990200D01*
X57355826Y-63990200D02*
X57327255Y-63933057D01*
X57327255Y-63933057D02*
X57298684Y-63904485D01*
X57298684Y-63904485D02*
X57241541Y-63875914D01*
X39255826Y-36518771D02*
X38912969Y-36518771D01*
X39084398Y-36518771D02*
X39084398Y-35918771D01*
X39084398Y-35918771D02*
X39027255Y-36004485D01*
X39027255Y-36004485D02*
X38970112Y-36061628D01*
X38970112Y-36061628D02*
X38912969Y-36090200D01*
X39770113Y-35918771D02*
X39655827Y-35918771D01*
X39655827Y-35918771D02*
X39598684Y-35947342D01*
X39598684Y-35947342D02*
X39570113Y-35975914D01*
X39570113Y-35975914D02*
X39512970Y-36061628D01*
X39512970Y-36061628D02*
X39484398Y-36175914D01*
X39484398Y-36175914D02*
X39484398Y-36404485D01*
X39484398Y-36404485D02*
X39512970Y-36461628D01*
X39512970Y-36461628D02*
X39541541Y-36490200D01*
X39541541Y-36490200D02*
X39598684Y-36518771D01*
X39598684Y-36518771D02*
X39712970Y-36518771D01*
X39712970Y-36518771D02*
X39770113Y-36490200D01*
X39770113Y-36490200D02*
X39798684Y-36461628D01*
X39798684Y-36461628D02*
X39827255Y-36404485D01*
X39827255Y-36404485D02*
X39827255Y-36261628D01*
X39827255Y-36261628D02*
X39798684Y-36204485D01*
X39798684Y-36204485D02*
X39770113Y-36175914D01*
X39770113Y-36175914D02*
X39712970Y-36147342D01*
X39712970Y-36147342D02*
X39598684Y-36147342D01*
X39598684Y-36147342D02*
X39541541Y-36175914D01*
X39541541Y-36175914D02*
X39512970Y-36204485D01*
X39512970Y-36204485D02*
X39484398Y-36261628D01*
X39555826Y-64218771D02*
X39212969Y-64218771D01*
X39384398Y-64218771D02*
X39384398Y-63618771D01*
X39384398Y-63618771D02*
X39327255Y-63704485D01*
X39327255Y-63704485D02*
X39270112Y-63761628D01*
X39270112Y-63761628D02*
X39212969Y-63790200D01*
X57070112Y-36518771D02*
X57184398Y-36518771D01*
X57184398Y-36518771D02*
X57241541Y-36490200D01*
X57241541Y-36490200D02*
X57270112Y-36461628D01*
X57270112Y-36461628D02*
X57327255Y-36375914D01*
X57327255Y-36375914D02*
X57355826Y-36261628D01*
X57355826Y-36261628D02*
X57355826Y-36033057D01*
X57355826Y-36033057D02*
X57327255Y-35975914D01*
X57327255Y-35975914D02*
X57298684Y-35947342D01*
X57298684Y-35947342D02*
X57241541Y-35918771D01*
X57241541Y-35918771D02*
X57127255Y-35918771D01*
X57127255Y-35918771D02*
X57070112Y-35947342D01*
X57070112Y-35947342D02*
X57041541Y-35975914D01*
X57041541Y-35975914D02*
X57012969Y-36033057D01*
X57012969Y-36033057D02*
X57012969Y-36175914D01*
X57012969Y-36175914D02*
X57041541Y-36233057D01*
X57041541Y-36233057D02*
X57070112Y-36261628D01*
X57070112Y-36261628D02*
X57127255Y-36290200D01*
X57127255Y-36290200D02*
X57241541Y-36290200D01*
X57241541Y-36290200D02*
X57298684Y-36261628D01*
X57298684Y-36261628D02*
X57327255Y-36233057D01*
X57327255Y-36233057D02*
X57355826Y-36175914D01*
X63369819Y-63639411D02*
X63369819Y-64210839D01*
X63369819Y-63925125D02*
X62369819Y-63925125D01*
X62369819Y-63925125D02*
X62512676Y-64020363D01*
X62512676Y-64020363D02*
X62607914Y-64115601D01*
X62607914Y-64115601D02*
X62655533Y-64210839D01*
X62369819Y-63020363D02*
X62369819Y-62925125D01*
X62369819Y-62925125D02*
X62417438Y-62829887D01*
X62417438Y-62829887D02*
X62465057Y-62782268D01*
X62465057Y-62782268D02*
X62560295Y-62734649D01*
X62560295Y-62734649D02*
X62750771Y-62687030D01*
X62750771Y-62687030D02*
X62988866Y-62687030D01*
X62988866Y-62687030D02*
X63179342Y-62734649D01*
X63179342Y-62734649D02*
X63274580Y-62782268D01*
X63274580Y-62782268D02*
X63322200Y-62829887D01*
X63322200Y-62829887D02*
X63369819Y-62925125D01*
X63369819Y-62925125D02*
X63369819Y-63020363D01*
X63369819Y-63020363D02*
X63322200Y-63115601D01*
X63322200Y-63115601D02*
X63274580Y-63163220D01*
X63274580Y-63163220D02*
X63179342Y-63210839D01*
X63179342Y-63210839D02*
X62988866Y-63258458D01*
X62988866Y-63258458D02*
X62750771Y-63258458D01*
X62750771Y-63258458D02*
X62560295Y-63210839D01*
X62560295Y-63210839D02*
X62465057Y-63163220D01*
X62465057Y-63163220D02*
X62417438Y-63115601D01*
X62417438Y-63115601D02*
X62369819Y-63020363D01*
X62798390Y-62115601D02*
X62750771Y-62210839D01*
X62750771Y-62210839D02*
X62703152Y-62258458D01*
X62703152Y-62258458D02*
X62607914Y-62306077D01*
X62607914Y-62306077D02*
X62560295Y-62306077D01*
X62560295Y-62306077D02*
X62465057Y-62258458D01*
X62465057Y-62258458D02*
X62417438Y-62210839D01*
X62417438Y-62210839D02*
X62369819Y-62115601D01*
X62369819Y-62115601D02*
X62369819Y-61925125D01*
X62369819Y-61925125D02*
X62417438Y-61829887D01*
X62417438Y-61829887D02*
X62465057Y-61782268D01*
X62465057Y-61782268D02*
X62560295Y-61734649D01*
X62560295Y-61734649D02*
X62607914Y-61734649D01*
X62607914Y-61734649D02*
X62703152Y-61782268D01*
X62703152Y-61782268D02*
X62750771Y-61829887D01*
X62750771Y-61829887D02*
X62798390Y-61925125D01*
X62798390Y-61925125D02*
X62798390Y-62115601D01*
X62798390Y-62115601D02*
X62846009Y-62210839D01*
X62846009Y-62210839D02*
X62893628Y-62258458D01*
X62893628Y-62258458D02*
X62988866Y-62306077D01*
X62988866Y-62306077D02*
X63179342Y-62306077D01*
X63179342Y-62306077D02*
X63274580Y-62258458D01*
X63274580Y-62258458D02*
X63322200Y-62210839D01*
X63322200Y-62210839D02*
X63369819Y-62115601D01*
X63369819Y-62115601D02*
X63369819Y-61925125D01*
X63369819Y-61925125D02*
X63322200Y-61829887D01*
X63322200Y-61829887D02*
X63274580Y-61782268D01*
X63274580Y-61782268D02*
X63179342Y-61734649D01*
X63179342Y-61734649D02*
X62988866Y-61734649D01*
X62988866Y-61734649D02*
X62893628Y-61782268D01*
X62893628Y-61782268D02*
X62846009Y-61829887D01*
X62846009Y-61829887D02*
X62798390Y-61925125D01*
X62798390Y-61163220D02*
X62750771Y-61258458D01*
X62750771Y-61258458D02*
X62703152Y-61306077D01*
X62703152Y-61306077D02*
X62607914Y-61353696D01*
X62607914Y-61353696D02*
X62560295Y-61353696D01*
X62560295Y-61353696D02*
X62465057Y-61306077D01*
X62465057Y-61306077D02*
X62417438Y-61258458D01*
X62417438Y-61258458D02*
X62369819Y-61163220D01*
X62369819Y-61163220D02*
X62369819Y-60972744D01*
X62369819Y-60972744D02*
X62417438Y-60877506D01*
X62417438Y-60877506D02*
X62465057Y-60829887D01*
X62465057Y-60829887D02*
X62560295Y-60782268D01*
X62560295Y-60782268D02*
X62607914Y-60782268D01*
X62607914Y-60782268D02*
X62703152Y-60829887D01*
X62703152Y-60829887D02*
X62750771Y-60877506D01*
X62750771Y-60877506D02*
X62798390Y-60972744D01*
X62798390Y-60972744D02*
X62798390Y-61163220D01*
X62798390Y-61163220D02*
X62846009Y-61258458D01*
X62846009Y-61258458D02*
X62893628Y-61306077D01*
X62893628Y-61306077D02*
X62988866Y-61353696D01*
X62988866Y-61353696D02*
X63179342Y-61353696D01*
X63179342Y-61353696D02*
X63274580Y-61306077D01*
X63274580Y-61306077D02*
X63322200Y-61258458D01*
X63322200Y-61258458D02*
X63369819Y-61163220D01*
X63369819Y-61163220D02*
X63369819Y-60972744D01*
X63369819Y-60972744D02*
X63322200Y-60877506D01*
X63322200Y-60877506D02*
X63274580Y-60829887D01*
X63274580Y-60829887D02*
X63179342Y-60782268D01*
X63179342Y-60782268D02*
X62988866Y-60782268D01*
X62988866Y-60782268D02*
X62893628Y-60829887D01*
X62893628Y-60829887D02*
X62846009Y-60877506D01*
X62846009Y-60877506D02*
X62798390Y-60972744D01*
X63084104Y-60401315D02*
X63084104Y-59925125D01*
X63369819Y-60496553D02*
X62369819Y-60163220D01*
X62369819Y-60163220D02*
X63369819Y-59829887D01*
X63322200Y-59544172D02*
X63369819Y-59401315D01*
X63369819Y-59401315D02*
X63369819Y-59163220D01*
X63369819Y-59163220D02*
X63322200Y-59067982D01*
X63322200Y-59067982D02*
X63274580Y-59020363D01*
X63274580Y-59020363D02*
X63179342Y-58972744D01*
X63179342Y-58972744D02*
X63084104Y-58972744D01*
X63084104Y-58972744D02*
X62988866Y-59020363D01*
X62988866Y-59020363D02*
X62941247Y-59067982D01*
X62941247Y-59067982D02*
X62893628Y-59163220D01*
X62893628Y-59163220D02*
X62846009Y-59353696D01*
X62846009Y-59353696D02*
X62798390Y-59448934D01*
X62798390Y-59448934D02*
X62750771Y-59496553D01*
X62750771Y-59496553D02*
X62655533Y-59544172D01*
X62655533Y-59544172D02*
X62560295Y-59544172D01*
X62560295Y-59544172D02*
X62465057Y-59496553D01*
X62465057Y-59496553D02*
X62417438Y-59448934D01*
X62417438Y-59448934D02*
X62369819Y-59353696D01*
X62369819Y-59353696D02*
X62369819Y-59115601D01*
X62369819Y-59115601D02*
X62417438Y-58972744D01*
X50669819Y-21951792D02*
X50193628Y-22285125D01*
X50669819Y-22523220D02*
X49669819Y-22523220D01*
X49669819Y-22523220D02*
X49669819Y-22142268D01*
X49669819Y-22142268D02*
X49717438Y-22047030D01*
X49717438Y-22047030D02*
X49765057Y-21999411D01*
X49765057Y-21999411D02*
X49860295Y-21951792D01*
X49860295Y-21951792D02*
X50003152Y-21951792D01*
X50003152Y-21951792D02*
X50098390Y-21999411D01*
X50098390Y-21999411D02*
X50146009Y-22047030D01*
X50146009Y-22047030D02*
X50193628Y-22142268D01*
X50193628Y-22142268D02*
X50193628Y-22523220D01*
X50669819Y-21380363D02*
X50622200Y-21475601D01*
X50622200Y-21475601D02*
X50574580Y-21523220D01*
X50574580Y-21523220D02*
X50479342Y-21570839D01*
X50479342Y-21570839D02*
X50193628Y-21570839D01*
X50193628Y-21570839D02*
X50098390Y-21523220D01*
X50098390Y-21523220D02*
X50050771Y-21475601D01*
X50050771Y-21475601D02*
X50003152Y-21380363D01*
X50003152Y-21380363D02*
X50003152Y-21237506D01*
X50003152Y-21237506D02*
X50050771Y-21142268D01*
X50050771Y-21142268D02*
X50098390Y-21094649D01*
X50098390Y-21094649D02*
X50193628Y-21047030D01*
X50193628Y-21047030D02*
X50479342Y-21047030D01*
X50479342Y-21047030D02*
X50574580Y-21094649D01*
X50574580Y-21094649D02*
X50622200Y-21142268D01*
X50622200Y-21142268D02*
X50669819Y-21237506D01*
X50669819Y-21237506D02*
X50669819Y-21380363D01*
X50003152Y-20713696D02*
X50669819Y-20523220D01*
X50669819Y-20523220D02*
X50193628Y-20332744D01*
X50193628Y-20332744D02*
X50669819Y-20142268D01*
X50669819Y-20142268D02*
X50003152Y-19951792D01*
X50622200Y-19618458D02*
X50669819Y-19523220D01*
X50669819Y-19523220D02*
X50669819Y-19332744D01*
X50669819Y-19332744D02*
X50622200Y-19237506D01*
X50622200Y-19237506D02*
X50526961Y-19189887D01*
X50526961Y-19189887D02*
X50479342Y-19189887D01*
X50479342Y-19189887D02*
X50384104Y-19237506D01*
X50384104Y-19237506D02*
X50336485Y-19332744D01*
X50336485Y-19332744D02*
X50336485Y-19475601D01*
X50336485Y-19475601D02*
X50288866Y-19570839D01*
X50288866Y-19570839D02*
X50193628Y-19618458D01*
X50193628Y-19618458D02*
X50146009Y-19618458D01*
X50146009Y-19618458D02*
X50050771Y-19570839D01*
X50050771Y-19570839D02*
X50003152Y-19475601D01*
X50003152Y-19475601D02*
X50003152Y-19332744D01*
X50003152Y-19332744D02*
X50050771Y-19237506D01*
X25114580Y-22931792D02*
X25162200Y-22979411D01*
X25162200Y-22979411D02*
X25209819Y-23122268D01*
X25209819Y-23122268D02*
X25209819Y-23217506D01*
X25209819Y-23217506D02*
X25162200Y-23360363D01*
X25162200Y-23360363D02*
X25066961Y-23455601D01*
X25066961Y-23455601D02*
X24971723Y-23503220D01*
X24971723Y-23503220D02*
X24781247Y-23550839D01*
X24781247Y-23550839D02*
X24638390Y-23550839D01*
X24638390Y-23550839D02*
X24447914Y-23503220D01*
X24447914Y-23503220D02*
X24352676Y-23455601D01*
X24352676Y-23455601D02*
X24257438Y-23360363D01*
X24257438Y-23360363D02*
X24209819Y-23217506D01*
X24209819Y-23217506D02*
X24209819Y-23122268D01*
X24209819Y-23122268D02*
X24257438Y-22979411D01*
X24257438Y-22979411D02*
X24305057Y-22931792D01*
X25209819Y-22360363D02*
X25162200Y-22455601D01*
X25162200Y-22455601D02*
X25114580Y-22503220D01*
X25114580Y-22503220D02*
X25019342Y-22550839D01*
X25019342Y-22550839D02*
X24733628Y-22550839D01*
X24733628Y-22550839D02*
X24638390Y-22503220D01*
X24638390Y-22503220D02*
X24590771Y-22455601D01*
X24590771Y-22455601D02*
X24543152Y-22360363D01*
X24543152Y-22360363D02*
X24543152Y-22217506D01*
X24543152Y-22217506D02*
X24590771Y-22122268D01*
X24590771Y-22122268D02*
X24638390Y-22074649D01*
X24638390Y-22074649D02*
X24733628Y-22027030D01*
X24733628Y-22027030D02*
X25019342Y-22027030D01*
X25019342Y-22027030D02*
X25114580Y-22074649D01*
X25114580Y-22074649D02*
X25162200Y-22122268D01*
X25162200Y-22122268D02*
X25209819Y-22217506D01*
X25209819Y-22217506D02*
X25209819Y-22360363D01*
X25209819Y-21455601D02*
X25162200Y-21550839D01*
X25162200Y-21550839D02*
X25066961Y-21598458D01*
X25066961Y-21598458D02*
X24209819Y-21598458D01*
X24543152Y-20646077D02*
X25209819Y-20646077D01*
X24543152Y-21074648D02*
X25066961Y-21074648D01*
X25066961Y-21074648D02*
X25162200Y-21027029D01*
X25162200Y-21027029D02*
X25209819Y-20931791D01*
X25209819Y-20931791D02*
X25209819Y-20788934D01*
X25209819Y-20788934D02*
X25162200Y-20693696D01*
X25162200Y-20693696D02*
X25114580Y-20646077D01*
X25209819Y-20169886D02*
X24543152Y-20169886D01*
X24638390Y-20169886D02*
X24590771Y-20122267D01*
X24590771Y-20122267D02*
X24543152Y-20027029D01*
X24543152Y-20027029D02*
X24543152Y-19884172D01*
X24543152Y-19884172D02*
X24590771Y-19788934D01*
X24590771Y-19788934D02*
X24686009Y-19741315D01*
X24686009Y-19741315D02*
X25209819Y-19741315D01*
X24686009Y-19741315D02*
X24590771Y-19693696D01*
X24590771Y-19693696D02*
X24543152Y-19598458D01*
X24543152Y-19598458D02*
X24543152Y-19455601D01*
X24543152Y-19455601D02*
X24590771Y-19360362D01*
X24590771Y-19360362D02*
X24686009Y-19312743D01*
X24686009Y-19312743D02*
X25209819Y-19312743D01*
X24543152Y-18836553D02*
X25209819Y-18836553D01*
X24638390Y-18836553D02*
X24590771Y-18788934D01*
X24590771Y-18788934D02*
X24543152Y-18693696D01*
X24543152Y-18693696D02*
X24543152Y-18550839D01*
X24543152Y-18550839D02*
X24590771Y-18455601D01*
X24590771Y-18455601D02*
X24686009Y-18407982D01*
X24686009Y-18407982D02*
X25209819Y-18407982D01*
X25162200Y-17979410D02*
X25209819Y-17884172D01*
X25209819Y-17884172D02*
X25209819Y-17693696D01*
X25209819Y-17693696D02*
X25162200Y-17598458D01*
X25162200Y-17598458D02*
X25066961Y-17550839D01*
X25066961Y-17550839D02*
X25019342Y-17550839D01*
X25019342Y-17550839D02*
X24924104Y-17598458D01*
X24924104Y-17598458D02*
X24876485Y-17693696D01*
X24876485Y-17693696D02*
X24876485Y-17836553D01*
X24876485Y-17836553D02*
X24828866Y-17931791D01*
X24828866Y-17931791D02*
X24733628Y-17979410D01*
X24733628Y-17979410D02*
X24686009Y-17979410D01*
X24686009Y-17979410D02*
X24590771Y-17931791D01*
X24590771Y-17931791D02*
X24543152Y-17836553D01*
X24543152Y-17836553D02*
X24543152Y-17693696D01*
X24543152Y-17693696D02*
X24590771Y-17598458D01*
X45852731Y-32794580D02*
X45805112Y-32842200D01*
X45805112Y-32842200D02*
X45662255Y-32889819D01*
X45662255Y-32889819D02*
X45567017Y-32889819D01*
X45567017Y-32889819D02*
X45424160Y-32842200D01*
X45424160Y-32842200D02*
X45328922Y-32746961D01*
X45328922Y-32746961D02*
X45281303Y-32651723D01*
X45281303Y-32651723D02*
X45233684Y-32461247D01*
X45233684Y-32461247D02*
X45233684Y-32318390D01*
X45233684Y-32318390D02*
X45281303Y-32127914D01*
X45281303Y-32127914D02*
X45328922Y-32032676D01*
X45328922Y-32032676D02*
X45424160Y-31937438D01*
X45424160Y-31937438D02*
X45567017Y-31889819D01*
X45567017Y-31889819D02*
X45662255Y-31889819D01*
X45662255Y-31889819D02*
X45805112Y-31937438D01*
X45805112Y-31937438D02*
X45852731Y-31985057D01*
X46424160Y-32889819D02*
X46328922Y-32842200D01*
X46328922Y-32842200D02*
X46281303Y-32794580D01*
X46281303Y-32794580D02*
X46233684Y-32699342D01*
X46233684Y-32699342D02*
X46233684Y-32413628D01*
X46233684Y-32413628D02*
X46281303Y-32318390D01*
X46281303Y-32318390D02*
X46328922Y-32270771D01*
X46328922Y-32270771D02*
X46424160Y-32223152D01*
X46424160Y-32223152D02*
X46567017Y-32223152D01*
X46567017Y-32223152D02*
X46662255Y-32270771D01*
X46662255Y-32270771D02*
X46709874Y-32318390D01*
X46709874Y-32318390D02*
X46757493Y-32413628D01*
X46757493Y-32413628D02*
X46757493Y-32699342D01*
X46757493Y-32699342D02*
X46709874Y-32794580D01*
X46709874Y-32794580D02*
X46662255Y-32842200D01*
X46662255Y-32842200D02*
X46567017Y-32889819D01*
X46567017Y-32889819D02*
X46424160Y-32889819D01*
X47328922Y-32889819D02*
X47233684Y-32842200D01*
X47233684Y-32842200D02*
X47186065Y-32746961D01*
X47186065Y-32746961D02*
X47186065Y-31889819D01*
X48138446Y-32223152D02*
X48138446Y-32889819D01*
X47709875Y-32223152D02*
X47709875Y-32746961D01*
X47709875Y-32746961D02*
X47757494Y-32842200D01*
X47757494Y-32842200D02*
X47852732Y-32889819D01*
X47852732Y-32889819D02*
X47995589Y-32889819D01*
X47995589Y-32889819D02*
X48090827Y-32842200D01*
X48090827Y-32842200D02*
X48138446Y-32794580D01*
X48614637Y-32889819D02*
X48614637Y-32223152D01*
X48614637Y-32318390D02*
X48662256Y-32270771D01*
X48662256Y-32270771D02*
X48757494Y-32223152D01*
X48757494Y-32223152D02*
X48900351Y-32223152D01*
X48900351Y-32223152D02*
X48995589Y-32270771D01*
X48995589Y-32270771D02*
X49043208Y-32366009D01*
X49043208Y-32366009D02*
X49043208Y-32889819D01*
X49043208Y-32366009D02*
X49090827Y-32270771D01*
X49090827Y-32270771D02*
X49186065Y-32223152D01*
X49186065Y-32223152D02*
X49328922Y-32223152D01*
X49328922Y-32223152D02*
X49424161Y-32270771D01*
X49424161Y-32270771D02*
X49471780Y-32366009D01*
X49471780Y-32366009D02*
X49471780Y-32889819D01*
X49947970Y-32223152D02*
X49947970Y-32889819D01*
X49947970Y-32318390D02*
X49995589Y-32270771D01*
X49995589Y-32270771D02*
X50090827Y-32223152D01*
X50090827Y-32223152D02*
X50233684Y-32223152D01*
X50233684Y-32223152D02*
X50328922Y-32270771D01*
X50328922Y-32270771D02*
X50376541Y-32366009D01*
X50376541Y-32366009D02*
X50376541Y-32889819D01*
X50805113Y-32842200D02*
X50900351Y-32889819D01*
X50900351Y-32889819D02*
X51090827Y-32889819D01*
X51090827Y-32889819D02*
X51186065Y-32842200D01*
X51186065Y-32842200D02*
X51233684Y-32746961D01*
X51233684Y-32746961D02*
X51233684Y-32699342D01*
X51233684Y-32699342D02*
X51186065Y-32604104D01*
X51186065Y-32604104D02*
X51090827Y-32556485D01*
X51090827Y-32556485D02*
X50947970Y-32556485D01*
X50947970Y-32556485D02*
X50852732Y-32508866D01*
X50852732Y-32508866D02*
X50805113Y-32413628D01*
X50805113Y-32413628D02*
X50805113Y-32366009D01*
X50805113Y-32366009D02*
X50852732Y-32270771D01*
X50852732Y-32270771D02*
X50947970Y-32223152D01*
X50947970Y-32223152D02*
X51090827Y-32223152D01*
X51090827Y-32223152D02*
X51186065Y-32270771D01*
X70989819Y-65227030D02*
X70989819Y-65703220D01*
X70989819Y-65703220D02*
X69989819Y-65703220D01*
X70989819Y-64465125D02*
X70466009Y-64465125D01*
X70466009Y-64465125D02*
X70370771Y-64512744D01*
X70370771Y-64512744D02*
X70323152Y-64607982D01*
X70323152Y-64607982D02*
X70323152Y-64798458D01*
X70323152Y-64798458D02*
X70370771Y-64893696D01*
X70942200Y-64465125D02*
X70989819Y-64560363D01*
X70989819Y-64560363D02*
X70989819Y-64798458D01*
X70989819Y-64798458D02*
X70942200Y-64893696D01*
X70942200Y-64893696D02*
X70846961Y-64941315D01*
X70846961Y-64941315D02*
X70751723Y-64941315D01*
X70751723Y-64941315D02*
X70656485Y-64893696D01*
X70656485Y-64893696D02*
X70608866Y-64798458D01*
X70608866Y-64798458D02*
X70608866Y-64560363D01*
X70608866Y-64560363D02*
X70561247Y-64465125D01*
X70989819Y-63988934D02*
X70323152Y-63988934D01*
X70418390Y-63988934D02*
X70370771Y-63941315D01*
X70370771Y-63941315D02*
X70323152Y-63846077D01*
X70323152Y-63846077D02*
X70323152Y-63703220D01*
X70323152Y-63703220D02*
X70370771Y-63607982D01*
X70370771Y-63607982D02*
X70466009Y-63560363D01*
X70466009Y-63560363D02*
X70989819Y-63560363D01*
X70466009Y-63560363D02*
X70370771Y-63512744D01*
X70370771Y-63512744D02*
X70323152Y-63417506D01*
X70323152Y-63417506D02*
X70323152Y-63274649D01*
X70323152Y-63274649D02*
X70370771Y-63179410D01*
X70370771Y-63179410D02*
X70466009Y-63131791D01*
X70466009Y-63131791D02*
X70989819Y-63131791D01*
X70323152Y-62655601D02*
X71323152Y-62655601D01*
X70370771Y-62655601D02*
X70323152Y-62560363D01*
X70323152Y-62560363D02*
X70323152Y-62369887D01*
X70323152Y-62369887D02*
X70370771Y-62274649D01*
X70370771Y-62274649D02*
X70418390Y-62227030D01*
X70418390Y-62227030D02*
X70513628Y-62179411D01*
X70513628Y-62179411D02*
X70799342Y-62179411D01*
X70799342Y-62179411D02*
X70894580Y-62227030D01*
X70894580Y-62227030D02*
X70942200Y-62274649D01*
X70942200Y-62274649D02*
X70989819Y-62369887D01*
X70989819Y-62369887D02*
X70989819Y-62560363D01*
X70989819Y-62560363D02*
X70942200Y-62655601D01*
X70989819Y-60988934D02*
X70323152Y-60988934D01*
X70418390Y-60988934D02*
X70370771Y-60941315D01*
X70370771Y-60941315D02*
X70323152Y-60846077D01*
X70323152Y-60846077D02*
X70323152Y-60703220D01*
X70323152Y-60703220D02*
X70370771Y-60607982D01*
X70370771Y-60607982D02*
X70466009Y-60560363D01*
X70466009Y-60560363D02*
X70989819Y-60560363D01*
X70466009Y-60560363D02*
X70370771Y-60512744D01*
X70370771Y-60512744D02*
X70323152Y-60417506D01*
X70323152Y-60417506D02*
X70323152Y-60274649D01*
X70323152Y-60274649D02*
X70370771Y-60179410D01*
X70370771Y-60179410D02*
X70466009Y-60131791D01*
X70466009Y-60131791D02*
X70989819Y-60131791D01*
X70989819Y-59227030D02*
X70466009Y-59227030D01*
X70466009Y-59227030D02*
X70370771Y-59274649D01*
X70370771Y-59274649D02*
X70323152Y-59369887D01*
X70323152Y-59369887D02*
X70323152Y-59560363D01*
X70323152Y-59560363D02*
X70370771Y-59655601D01*
X70942200Y-59227030D02*
X70989819Y-59322268D01*
X70989819Y-59322268D02*
X70989819Y-59560363D01*
X70989819Y-59560363D02*
X70942200Y-59655601D01*
X70942200Y-59655601D02*
X70846961Y-59703220D01*
X70846961Y-59703220D02*
X70751723Y-59703220D01*
X70751723Y-59703220D02*
X70656485Y-59655601D01*
X70656485Y-59655601D02*
X70608866Y-59560363D01*
X70608866Y-59560363D02*
X70608866Y-59322268D01*
X70608866Y-59322268D02*
X70561247Y-59227030D01*
X70323152Y-58893696D02*
X70323152Y-58512744D01*
X69989819Y-58750839D02*
X70846961Y-58750839D01*
X70846961Y-58750839D02*
X70942200Y-58703220D01*
X70942200Y-58703220D02*
X70989819Y-58607982D01*
X70989819Y-58607982D02*
X70989819Y-58512744D01*
X70989819Y-58179410D02*
X70323152Y-58179410D01*
X70513628Y-58179410D02*
X70418390Y-58131791D01*
X70418390Y-58131791D02*
X70370771Y-58084172D01*
X70370771Y-58084172D02*
X70323152Y-57988934D01*
X70323152Y-57988934D02*
X70323152Y-57893696D01*
X70989819Y-57560362D02*
X70323152Y-57560362D01*
X69989819Y-57560362D02*
X70037438Y-57607981D01*
X70037438Y-57607981D02*
X70085057Y-57560362D01*
X70085057Y-57560362D02*
X70037438Y-57512743D01*
X70037438Y-57512743D02*
X69989819Y-57560362D01*
X69989819Y-57560362D02*
X70085057Y-57560362D01*
X70989819Y-57179410D02*
X70323152Y-56655601D01*
X70323152Y-57179410D02*
X70989819Y-56655601D01*
X70323152Y-55655600D02*
X70323152Y-55274648D01*
X69989819Y-55512743D02*
X70846961Y-55512743D01*
X70846961Y-55512743D02*
X70942200Y-55465124D01*
X70942200Y-55465124D02*
X70989819Y-55369886D01*
X70989819Y-55369886D02*
X70989819Y-55274648D01*
X70942200Y-54560362D02*
X70989819Y-54655600D01*
X70989819Y-54655600D02*
X70989819Y-54846076D01*
X70989819Y-54846076D02*
X70942200Y-54941314D01*
X70942200Y-54941314D02*
X70846961Y-54988933D01*
X70846961Y-54988933D02*
X70466009Y-54988933D01*
X70466009Y-54988933D02*
X70370771Y-54941314D01*
X70370771Y-54941314D02*
X70323152Y-54846076D01*
X70323152Y-54846076D02*
X70323152Y-54655600D01*
X70323152Y-54655600D02*
X70370771Y-54560362D01*
X70370771Y-54560362D02*
X70466009Y-54512743D01*
X70466009Y-54512743D02*
X70561247Y-54512743D01*
X70561247Y-54512743D02*
X70656485Y-54988933D01*
X70942200Y-54131790D02*
X70989819Y-54036552D01*
X70989819Y-54036552D02*
X70989819Y-53846076D01*
X70989819Y-53846076D02*
X70942200Y-53750838D01*
X70942200Y-53750838D02*
X70846961Y-53703219D01*
X70846961Y-53703219D02*
X70799342Y-53703219D01*
X70799342Y-53703219D02*
X70704104Y-53750838D01*
X70704104Y-53750838D02*
X70656485Y-53846076D01*
X70656485Y-53846076D02*
X70656485Y-53988933D01*
X70656485Y-53988933D02*
X70608866Y-54084171D01*
X70608866Y-54084171D02*
X70513628Y-54131790D01*
X70513628Y-54131790D02*
X70466009Y-54131790D01*
X70466009Y-54131790D02*
X70370771Y-54084171D01*
X70370771Y-54084171D02*
X70323152Y-53988933D01*
X70323152Y-53988933D02*
X70323152Y-53846076D01*
X70323152Y-53846076D02*
X70370771Y-53750838D01*
X70323152Y-53417504D02*
X70323152Y-53036552D01*
X69989819Y-53274647D02*
X70846961Y-53274647D01*
X70846961Y-53274647D02*
X70942200Y-53227028D01*
X70942200Y-53227028D02*
X70989819Y-53131790D01*
X70989819Y-53131790D02*
X70989819Y-53036552D01*
X70942200Y-52322266D02*
X70989819Y-52417504D01*
X70989819Y-52417504D02*
X70989819Y-52607980D01*
X70989819Y-52607980D02*
X70942200Y-52703218D01*
X70942200Y-52703218D02*
X70846961Y-52750837D01*
X70846961Y-52750837D02*
X70466009Y-52750837D01*
X70466009Y-52750837D02*
X70370771Y-52703218D01*
X70370771Y-52703218D02*
X70323152Y-52607980D01*
X70323152Y-52607980D02*
X70323152Y-52417504D01*
X70323152Y-52417504D02*
X70370771Y-52322266D01*
X70370771Y-52322266D02*
X70466009Y-52274647D01*
X70466009Y-52274647D02*
X70561247Y-52274647D01*
X70561247Y-52274647D02*
X70656485Y-52750837D01*
X70989819Y-51846075D02*
X70323152Y-51846075D01*
X70513628Y-51846075D02*
X70418390Y-51798456D01*
X70418390Y-51798456D02*
X70370771Y-51750837D01*
X70370771Y-51750837D02*
X70323152Y-51655599D01*
X70323152Y-51655599D02*
X70323152Y-51560361D01*
X70323152Y-50560360D02*
X70989819Y-50322265D01*
X70989819Y-50322265D02*
X70323152Y-50084170D01*
X70989819Y-49179408D02*
X70989819Y-49750836D01*
X70989819Y-49465122D02*
X69989819Y-49465122D01*
X69989819Y-49465122D02*
X70132676Y-49560360D01*
X70132676Y-49560360D02*
X70227914Y-49655598D01*
X70227914Y-49655598D02*
X70275533Y-49750836D01*
X70894580Y-48750836D02*
X70942200Y-48703217D01*
X70942200Y-48703217D02*
X70989819Y-48750836D01*
X70989819Y-48750836D02*
X70942200Y-48798455D01*
X70942200Y-48798455D02*
X70894580Y-48750836D01*
X70894580Y-48750836D02*
X70989819Y-48750836D01*
X69989819Y-48084170D02*
X69989819Y-47988932D01*
X69989819Y-47988932D02*
X70037438Y-47893694D01*
X70037438Y-47893694D02*
X70085057Y-47846075D01*
X70085057Y-47846075D02*
X70180295Y-47798456D01*
X70180295Y-47798456D02*
X70370771Y-47750837D01*
X70370771Y-47750837D02*
X70608866Y-47750837D01*
X70608866Y-47750837D02*
X70799342Y-47798456D01*
X70799342Y-47798456D02*
X70894580Y-47846075D01*
X70894580Y-47846075D02*
X70942200Y-47893694D01*
X70942200Y-47893694D02*
X70989819Y-47988932D01*
X70989819Y-47988932D02*
X70989819Y-48084170D01*
X70989819Y-48084170D02*
X70942200Y-48179408D01*
X70942200Y-48179408D02*
X70894580Y-48227027D01*
X70894580Y-48227027D02*
X70799342Y-48274646D01*
X70799342Y-48274646D02*
X70608866Y-48322265D01*
X70608866Y-48322265D02*
X70370771Y-48322265D01*
X70370771Y-48322265D02*
X70180295Y-48274646D01*
X70180295Y-48274646D02*
X70085057Y-48227027D01*
X70085057Y-48227027D02*
X70037438Y-48179408D01*
X70037438Y-48179408D02*
X69989819Y-48084170D01*
X44904819Y-44836666D02*
X44428628Y-45169999D01*
X44904819Y-45408094D02*
X43904819Y-45408094D01*
X43904819Y-45408094D02*
X43904819Y-45027142D01*
X43904819Y-45027142D02*
X43952438Y-44931904D01*
X43952438Y-44931904D02*
X44000057Y-44884285D01*
X44000057Y-44884285D02*
X44095295Y-44836666D01*
X44095295Y-44836666D02*
X44238152Y-44836666D01*
X44238152Y-44836666D02*
X44333390Y-44884285D01*
X44333390Y-44884285D02*
X44381009Y-44931904D01*
X44381009Y-44931904D02*
X44428628Y-45027142D01*
X44428628Y-45027142D02*
X44428628Y-45408094D01*
X44000057Y-44455713D02*
X43952438Y-44408094D01*
X43952438Y-44408094D02*
X43904819Y-44312856D01*
X43904819Y-44312856D02*
X43904819Y-44074761D01*
X43904819Y-44074761D02*
X43952438Y-43979523D01*
X43952438Y-43979523D02*
X44000057Y-43931904D01*
X44000057Y-43931904D02*
X44095295Y-43884285D01*
X44095295Y-43884285D02*
X44190533Y-43884285D01*
X44190533Y-43884285D02*
X44333390Y-43931904D01*
X44333390Y-43931904D02*
X44904819Y-44503332D01*
X44904819Y-44503332D02*
X44904819Y-43884285D01*
X39824819Y-55696667D02*
X39348628Y-56030000D01*
X39824819Y-56268095D02*
X38824819Y-56268095D01*
X38824819Y-56268095D02*
X38824819Y-55887143D01*
X38824819Y-55887143D02*
X38872438Y-55791905D01*
X38872438Y-55791905D02*
X38920057Y-55744286D01*
X38920057Y-55744286D02*
X39015295Y-55696667D01*
X39015295Y-55696667D02*
X39158152Y-55696667D01*
X39158152Y-55696667D02*
X39253390Y-55744286D01*
X39253390Y-55744286D02*
X39301009Y-55791905D01*
X39301009Y-55791905D02*
X39348628Y-55887143D01*
X39348628Y-55887143D02*
X39348628Y-56268095D01*
X38824819Y-54791905D02*
X38824819Y-55268095D01*
X38824819Y-55268095D02*
X39301009Y-55315714D01*
X39301009Y-55315714D02*
X39253390Y-55268095D01*
X39253390Y-55268095D02*
X39205771Y-55172857D01*
X39205771Y-55172857D02*
X39205771Y-54934762D01*
X39205771Y-54934762D02*
X39253390Y-54839524D01*
X39253390Y-54839524D02*
X39301009Y-54791905D01*
X39301009Y-54791905D02*
X39396247Y-54744286D01*
X39396247Y-54744286D02*
X39634342Y-54744286D01*
X39634342Y-54744286D02*
X39729580Y-54791905D01*
X39729580Y-54791905D02*
X39777200Y-54839524D01*
X39777200Y-54839524D02*
X39824819Y-54934762D01*
X39824819Y-54934762D02*
X39824819Y-55172857D01*
X39824819Y-55172857D02*
X39777200Y-55268095D01*
X39777200Y-55268095D02*
X39729580Y-55315714D01*
X35226666Y-29934819D02*
X35226666Y-30649104D01*
X35226666Y-30649104D02*
X35179047Y-30791961D01*
X35179047Y-30791961D02*
X35083809Y-30887200D01*
X35083809Y-30887200D02*
X34940952Y-30934819D01*
X34940952Y-30934819D02*
X34845714Y-30934819D01*
X36226666Y-30934819D02*
X35655238Y-30934819D01*
X35940952Y-30934819D02*
X35940952Y-29934819D01*
X35940952Y-29934819D02*
X35845714Y-30077676D01*
X35845714Y-30077676D02*
X35750476Y-30172914D01*
X35750476Y-30172914D02*
X35655238Y-30220533D01*
X49984819Y-44836667D02*
X49508628Y-45170000D01*
X49984819Y-45408095D02*
X48984819Y-45408095D01*
X48984819Y-45408095D02*
X48984819Y-45027143D01*
X48984819Y-45027143D02*
X49032438Y-44931905D01*
X49032438Y-44931905D02*
X49080057Y-44884286D01*
X49080057Y-44884286D02*
X49175295Y-44836667D01*
X49175295Y-44836667D02*
X49318152Y-44836667D01*
X49318152Y-44836667D02*
X49413390Y-44884286D01*
X49413390Y-44884286D02*
X49461009Y-44931905D01*
X49461009Y-44931905D02*
X49508628Y-45027143D01*
X49508628Y-45027143D02*
X49508628Y-45408095D01*
X49318152Y-43979524D02*
X49984819Y-43979524D01*
X48937200Y-44217619D02*
X49651485Y-44455714D01*
X49651485Y-44455714D02*
X49651485Y-43836667D01*
X55064819Y-55696667D02*
X54588628Y-56030000D01*
X55064819Y-56268095D02*
X54064819Y-56268095D01*
X54064819Y-56268095D02*
X54064819Y-55887143D01*
X54064819Y-55887143D02*
X54112438Y-55791905D01*
X54112438Y-55791905D02*
X54160057Y-55744286D01*
X54160057Y-55744286D02*
X54255295Y-55696667D01*
X54255295Y-55696667D02*
X54398152Y-55696667D01*
X54398152Y-55696667D02*
X54493390Y-55744286D01*
X54493390Y-55744286D02*
X54541009Y-55791905D01*
X54541009Y-55791905D02*
X54588628Y-55887143D01*
X54588628Y-55887143D02*
X54588628Y-56268095D01*
X54064819Y-54839524D02*
X54064819Y-55030000D01*
X54064819Y-55030000D02*
X54112438Y-55125238D01*
X54112438Y-55125238D02*
X54160057Y-55172857D01*
X54160057Y-55172857D02*
X54302914Y-55268095D01*
X54302914Y-55268095D02*
X54493390Y-55315714D01*
X54493390Y-55315714D02*
X54874342Y-55315714D01*
X54874342Y-55315714D02*
X54969580Y-55268095D01*
X54969580Y-55268095D02*
X55017200Y-55220476D01*
X55017200Y-55220476D02*
X55064819Y-55125238D01*
X55064819Y-55125238D02*
X55064819Y-54934762D01*
X55064819Y-54934762D02*
X55017200Y-54839524D01*
X55017200Y-54839524D02*
X54969580Y-54791905D01*
X54969580Y-54791905D02*
X54874342Y-54744286D01*
X54874342Y-54744286D02*
X54636247Y-54744286D01*
X54636247Y-54744286D02*
X54541009Y-54791905D01*
X54541009Y-54791905D02*
X54493390Y-54839524D01*
X54493390Y-54839524D02*
X54445771Y-54934762D01*
X54445771Y-54934762D02*
X54445771Y-55125238D01*
X54445771Y-55125238D02*
X54493390Y-55220476D01*
X54493390Y-55220476D02*
X54541009Y-55268095D01*
X54541009Y-55268095D02*
X54636247Y-55315714D01*
X42364819Y-55696667D02*
X41888628Y-56030000D01*
X42364819Y-56268095D02*
X41364819Y-56268095D01*
X41364819Y-56268095D02*
X41364819Y-55887143D01*
X41364819Y-55887143D02*
X41412438Y-55791905D01*
X41412438Y-55791905D02*
X41460057Y-55744286D01*
X41460057Y-55744286D02*
X41555295Y-55696667D01*
X41555295Y-55696667D02*
X41698152Y-55696667D01*
X41698152Y-55696667D02*
X41793390Y-55744286D01*
X41793390Y-55744286D02*
X41841009Y-55791905D01*
X41841009Y-55791905D02*
X41888628Y-55887143D01*
X41888628Y-55887143D02*
X41888628Y-56268095D01*
X41364819Y-55363333D02*
X41364819Y-54696667D01*
X41364819Y-54696667D02*
X42364819Y-55125238D01*
X57604819Y-55696667D02*
X57128628Y-56030000D01*
X57604819Y-56268095D02*
X56604819Y-56268095D01*
X56604819Y-56268095D02*
X56604819Y-55887143D01*
X56604819Y-55887143D02*
X56652438Y-55791905D01*
X56652438Y-55791905D02*
X56700057Y-55744286D01*
X56700057Y-55744286D02*
X56795295Y-55696667D01*
X56795295Y-55696667D02*
X56938152Y-55696667D01*
X56938152Y-55696667D02*
X57033390Y-55744286D01*
X57033390Y-55744286D02*
X57081009Y-55791905D01*
X57081009Y-55791905D02*
X57128628Y-55887143D01*
X57128628Y-55887143D02*
X57128628Y-56268095D01*
X56604819Y-55363333D02*
X56604819Y-54744286D01*
X56604819Y-54744286D02*
X56985771Y-55077619D01*
X56985771Y-55077619D02*
X56985771Y-54934762D01*
X56985771Y-54934762D02*
X57033390Y-54839524D01*
X57033390Y-54839524D02*
X57081009Y-54791905D01*
X57081009Y-54791905D02*
X57176247Y-54744286D01*
X57176247Y-54744286D02*
X57414342Y-54744286D01*
X57414342Y-54744286D02*
X57509580Y-54791905D01*
X57509580Y-54791905D02*
X57557200Y-54839524D01*
X57557200Y-54839524D02*
X57604819Y-54934762D01*
X57604819Y-54934762D02*
X57604819Y-55220476D01*
X57604819Y-55220476D02*
X57557200Y-55315714D01*
X57557200Y-55315714D02*
X57509580Y-55363333D01*
X49984819Y-55696667D02*
X49508628Y-56030000D01*
X49984819Y-56268095D02*
X48984819Y-56268095D01*
X48984819Y-56268095D02*
X48984819Y-55887143D01*
X48984819Y-55887143D02*
X49032438Y-55791905D01*
X49032438Y-55791905D02*
X49080057Y-55744286D01*
X49080057Y-55744286D02*
X49175295Y-55696667D01*
X49175295Y-55696667D02*
X49318152Y-55696667D01*
X49318152Y-55696667D02*
X49413390Y-55744286D01*
X49413390Y-55744286D02*
X49461009Y-55791905D01*
X49461009Y-55791905D02*
X49508628Y-55887143D01*
X49508628Y-55887143D02*
X49508628Y-56268095D01*
X49413390Y-55125238D02*
X49365771Y-55220476D01*
X49365771Y-55220476D02*
X49318152Y-55268095D01*
X49318152Y-55268095D02*
X49222914Y-55315714D01*
X49222914Y-55315714D02*
X49175295Y-55315714D01*
X49175295Y-55315714D02*
X49080057Y-55268095D01*
X49080057Y-55268095D02*
X49032438Y-55220476D01*
X49032438Y-55220476D02*
X48984819Y-55125238D01*
X48984819Y-55125238D02*
X48984819Y-54934762D01*
X48984819Y-54934762D02*
X49032438Y-54839524D01*
X49032438Y-54839524D02*
X49080057Y-54791905D01*
X49080057Y-54791905D02*
X49175295Y-54744286D01*
X49175295Y-54744286D02*
X49222914Y-54744286D01*
X49222914Y-54744286D02*
X49318152Y-54791905D01*
X49318152Y-54791905D02*
X49365771Y-54839524D01*
X49365771Y-54839524D02*
X49413390Y-54934762D01*
X49413390Y-54934762D02*
X49413390Y-55125238D01*
X49413390Y-55125238D02*
X49461009Y-55220476D01*
X49461009Y-55220476D02*
X49508628Y-55268095D01*
X49508628Y-55268095D02*
X49603866Y-55315714D01*
X49603866Y-55315714D02*
X49794342Y-55315714D01*
X49794342Y-55315714D02*
X49889580Y-55268095D01*
X49889580Y-55268095D02*
X49937200Y-55220476D01*
X49937200Y-55220476D02*
X49984819Y-55125238D01*
X49984819Y-55125238D02*
X49984819Y-54934762D01*
X49984819Y-54934762D02*
X49937200Y-54839524D01*
X49937200Y-54839524D02*
X49889580Y-54791905D01*
X49889580Y-54791905D02*
X49794342Y-54744286D01*
X49794342Y-54744286D02*
X49603866Y-54744286D01*
X49603866Y-54744286D02*
X49508628Y-54791905D01*
X49508628Y-54791905D02*
X49461009Y-54839524D01*
X49461009Y-54839524D02*
X49413390Y-54934762D01*
X60626666Y-29934819D02*
X60626666Y-30649104D01*
X60626666Y-30649104D02*
X60579047Y-30791961D01*
X60579047Y-30791961D02*
X60483809Y-30887200D01*
X60483809Y-30887200D02*
X60340952Y-30934819D01*
X60340952Y-30934819D02*
X60245714Y-30934819D01*
X61055238Y-30030057D02*
X61102857Y-29982438D01*
X61102857Y-29982438D02*
X61198095Y-29934819D01*
X61198095Y-29934819D02*
X61436190Y-29934819D01*
X61436190Y-29934819D02*
X61531428Y-29982438D01*
X61531428Y-29982438D02*
X61579047Y-30030057D01*
X61579047Y-30030057D02*
X61626666Y-30125295D01*
X61626666Y-30125295D02*
X61626666Y-30220533D01*
X61626666Y-30220533D02*
X61579047Y-30363390D01*
X61579047Y-30363390D02*
X61007619Y-30934819D01*
X61007619Y-30934819D02*
X61626666Y-30934819D01*
X57604819Y-44836667D02*
X57128628Y-45170000D01*
X57604819Y-45408095D02*
X56604819Y-45408095D01*
X56604819Y-45408095D02*
X56604819Y-45027143D01*
X56604819Y-45027143D02*
X56652438Y-44931905D01*
X56652438Y-44931905D02*
X56700057Y-44884286D01*
X56700057Y-44884286D02*
X56795295Y-44836667D01*
X56795295Y-44836667D02*
X56938152Y-44836667D01*
X56938152Y-44836667D02*
X57033390Y-44884286D01*
X57033390Y-44884286D02*
X57081009Y-44931905D01*
X57081009Y-44931905D02*
X57128628Y-45027143D01*
X57128628Y-45027143D02*
X57128628Y-45408095D01*
X57604819Y-43884286D02*
X57604819Y-44455714D01*
X57604819Y-44170000D02*
X56604819Y-44170000D01*
X56604819Y-44170000D02*
X56747676Y-44265238D01*
X56747676Y-44265238D02*
X56842914Y-44360476D01*
X56842914Y-44360476D02*
X56890533Y-44455714D01*
X33528095Y-64224819D02*
X33528095Y-65034342D01*
X33528095Y-65034342D02*
X33575714Y-65129580D01*
X33575714Y-65129580D02*
X33623333Y-65177200D01*
X33623333Y-65177200D02*
X33718571Y-65224819D01*
X33718571Y-65224819D02*
X33909047Y-65224819D01*
X33909047Y-65224819D02*
X34004285Y-65177200D01*
X34004285Y-65177200D02*
X34051904Y-65129580D01*
X34051904Y-65129580D02*
X34099523Y-65034342D01*
X34099523Y-65034342D02*
X34099523Y-64224819D01*
X35099523Y-65224819D02*
X34528095Y-65224819D01*
X34813809Y-65224819D02*
X34813809Y-64224819D01*
X34813809Y-64224819D02*
X34718571Y-64367676D01*
X34718571Y-64367676D02*
X34623333Y-64462914D01*
X34623333Y-64462914D02*
X34528095Y-64510533D01*
D11*
%TO.C,R2*%
X43530000Y-42750000D02*
X43530000Y-46590000D01*
X43530000Y-46590000D02*
X45370000Y-46590000D01*
X44450000Y-41800000D02*
X44450000Y-42750000D01*
X44450000Y-47540000D02*
X44450000Y-46590000D01*
X45370000Y-42750000D02*
X43530000Y-42750000D01*
X45370000Y-46590000D02*
X45370000Y-42750000D01*
%TO.C,R5*%
X38450000Y-53610001D02*
X38450000Y-57450001D01*
X38450000Y-57450001D02*
X40290000Y-57450001D01*
X39370000Y-52660001D02*
X39370000Y-53610001D01*
X39370000Y-58400001D02*
X39370000Y-57450001D01*
X40290000Y-53610001D02*
X38450000Y-53610001D01*
X40290000Y-57450001D02*
X40290000Y-53610001D01*
%TO.C,J1*%
X25340000Y-23840000D02*
X25340000Y-26500000D01*
X25340000Y-26500000D02*
X45780000Y-26500000D01*
X25400000Y-29210000D02*
X25400000Y-27940000D01*
X26290000Y-17840000D02*
X27050000Y-17840000D01*
X26290000Y-23840000D02*
X26290000Y-17840000D01*
X26290000Y-26830000D02*
X26290000Y-26500000D01*
X26350000Y-23840000D02*
X26350000Y-17840000D01*
X26470000Y-23840000D02*
X26470000Y-17840000D01*
X26590000Y-23840000D02*
X26590000Y-17840000D01*
X26670000Y-29210000D02*
X25400000Y-29210000D01*
X26710000Y-23840000D02*
X26710000Y-17840000D01*
X26830000Y-23840000D02*
X26830000Y-17840000D01*
X26950000Y-23840000D02*
X26950000Y-17840000D01*
X27050000Y-17840000D02*
X27050000Y-23840000D01*
X27050000Y-26830000D02*
X27050000Y-26500000D01*
X27940000Y-26500000D02*
X27940000Y-23840000D01*
X28830000Y-17840000D02*
X29590000Y-17840000D01*
X28830000Y-23840000D02*
X28830000Y-17840000D01*
X28830000Y-26897071D02*
X28830000Y-26500000D01*
X29590000Y-17840000D02*
X29590000Y-23840000D01*
X29590000Y-26897071D02*
X29590000Y-26500000D01*
X30480000Y-26500000D02*
X30480000Y-23840000D01*
X31370000Y-17840000D02*
X32130000Y-17840000D01*
X31370000Y-23840000D02*
X31370000Y-17840000D01*
X31370000Y-26897071D02*
X31370000Y-26500000D01*
X32130000Y-17840000D02*
X32130000Y-23840000D01*
X32130000Y-26897071D02*
X32130000Y-26500000D01*
X33020000Y-26500000D02*
X33020000Y-23840000D01*
X33910000Y-17840000D02*
X34670000Y-17840000D01*
X33910000Y-23840000D02*
X33910000Y-17840000D01*
X33910000Y-26897071D02*
X33910000Y-26500000D01*
X34670000Y-17840000D02*
X34670000Y-23840000D01*
X34670000Y-26897071D02*
X34670000Y-26500000D01*
X35560000Y-26500000D02*
X35560000Y-23840000D01*
X36450000Y-17840000D02*
X37210000Y-17840000D01*
X36450000Y-23840000D02*
X36450000Y-17840000D01*
X36450000Y-26897071D02*
X36450000Y-26500000D01*
X37210000Y-17840000D02*
X37210000Y-23840000D01*
X37210000Y-26897071D02*
X37210000Y-26500000D01*
X38100000Y-26500000D02*
X38100000Y-23840000D01*
X38990000Y-17840000D02*
X39750000Y-17840000D01*
X38990000Y-23840000D02*
X38990000Y-17840000D01*
X38990000Y-26897071D02*
X38990000Y-26500000D01*
X39750000Y-17840000D02*
X39750000Y-23840000D01*
X39750000Y-26897071D02*
X39750000Y-26500000D01*
X40640000Y-26500000D02*
X40640000Y-23840000D01*
X41530000Y-17840000D02*
X42290000Y-17840000D01*
X41530000Y-23840000D02*
X41530000Y-17840000D01*
X41530000Y-26897071D02*
X41530000Y-26500000D01*
X42290000Y-17840000D02*
X42290000Y-23840000D01*
X42290000Y-26897071D02*
X42290000Y-26500000D01*
X43180000Y-26500000D02*
X43180000Y-23840000D01*
X44070000Y-17840000D02*
X44830000Y-17840000D01*
X44070000Y-23840000D02*
X44070000Y-17840000D01*
X44070000Y-26897071D02*
X44070000Y-26500000D01*
X44830000Y-17840000D02*
X44830000Y-23840000D01*
X44830000Y-26897071D02*
X44830000Y-26500000D01*
X45780000Y-23840000D02*
X25340000Y-23840000D01*
X45780000Y-26500000D02*
X45780000Y-23840000D01*
%TO.C,R4*%
X48610000Y-42750001D02*
X48610000Y-46590001D01*
X48610000Y-46590001D02*
X50450000Y-46590001D01*
X49530000Y-41800001D02*
X49530000Y-42750001D01*
X49530000Y-47540001D02*
X49530000Y-46590001D01*
X50450000Y-42750001D02*
X48610000Y-42750001D01*
X50450000Y-46590001D02*
X50450000Y-42750001D01*
%TO.C,R6*%
X53690000Y-53610001D02*
X53690000Y-57450001D01*
X53690000Y-57450001D02*
X55530000Y-57450001D01*
X54610000Y-52660001D02*
X54610000Y-53610001D01*
X54610000Y-58400001D02*
X54610000Y-57450001D01*
X55530000Y-53610001D02*
X53690000Y-53610001D01*
X55530000Y-57450001D02*
X55530000Y-53610001D01*
%TO.C,R7*%
X40990000Y-53610001D02*
X40990000Y-57450001D01*
X40990000Y-57450001D02*
X42830000Y-57450001D01*
X41910000Y-52660001D02*
X41910000Y-53610001D01*
X41910000Y-58400001D02*
X41910000Y-57450001D01*
X42830000Y-53610001D02*
X40990000Y-53610001D01*
X42830000Y-57450001D02*
X42830000Y-53610001D01*
%TO.C,R3*%
X56230000Y-53610001D02*
X56230000Y-57450001D01*
X56230000Y-57450001D02*
X58070000Y-57450001D01*
X57150000Y-52660001D02*
X57150000Y-53610001D01*
X57150000Y-58400001D02*
X57150000Y-57450001D01*
X58070000Y-53610001D02*
X56230000Y-53610001D01*
X58070000Y-57450001D02*
X58070000Y-53610001D01*
%TO.C,R8*%
X48610000Y-53610001D02*
X48610000Y-57450001D01*
X48610000Y-57450001D02*
X50450000Y-57450001D01*
X49530000Y-52660001D02*
X49530000Y-53610001D01*
X49530000Y-58400001D02*
X49530000Y-57450001D01*
X50450000Y-53610001D02*
X48610000Y-53610001D01*
X50450000Y-57450001D02*
X50450000Y-53610001D01*
%TO.C,J2*%
X50740000Y-23840000D02*
X50740000Y-26500000D01*
X50740000Y-26500000D02*
X71180000Y-26500000D01*
X50800000Y-29210000D02*
X50800000Y-27940000D01*
X51690000Y-17840000D02*
X52450000Y-17840000D01*
X51690000Y-23840000D02*
X51690000Y-17840000D01*
X51690000Y-26830000D02*
X51690000Y-26500000D01*
X51750000Y-23840000D02*
X51750000Y-17840000D01*
X51870000Y-23840000D02*
X51870000Y-17840000D01*
X51990000Y-23840000D02*
X51990000Y-17840000D01*
X52070000Y-29210000D02*
X50800000Y-29210000D01*
X52110000Y-23840000D02*
X52110000Y-17840000D01*
X52230000Y-23840000D02*
X52230000Y-17840000D01*
X52350000Y-23840000D02*
X52350000Y-17840000D01*
X52450000Y-17840000D02*
X52450000Y-23840000D01*
X52450000Y-26830000D02*
X52450000Y-26500000D01*
X53340000Y-26500000D02*
X53340000Y-23840000D01*
X54230000Y-17840000D02*
X54990000Y-17840000D01*
X54230000Y-23840000D02*
X54230000Y-17840000D01*
X54230000Y-26897071D02*
X54230000Y-26500000D01*
X54990000Y-17840000D02*
X54990000Y-23840000D01*
X54990000Y-26897071D02*
X54990000Y-26500000D01*
X55880000Y-26500000D02*
X55880000Y-23840000D01*
X56770000Y-17840000D02*
X57530000Y-17840000D01*
X56770000Y-23840000D02*
X56770000Y-17840000D01*
X56770000Y-26897071D02*
X56770000Y-26500000D01*
X57530000Y-17840000D02*
X57530000Y-23840000D01*
X57530000Y-26897071D02*
X57530000Y-26500000D01*
X58420000Y-26500000D02*
X58420000Y-23840000D01*
X59310000Y-17840000D02*
X60070000Y-17840000D01*
X59310000Y-23840000D02*
X59310000Y-17840000D01*
X59310000Y-26897071D02*
X59310000Y-26500000D01*
X60070000Y-17840000D02*
X60070000Y-23840000D01*
X60070000Y-26897071D02*
X60070000Y-26500000D01*
X60960000Y-26500000D02*
X60960000Y-23840000D01*
X61850000Y-17840000D02*
X62610000Y-17840000D01*
X61850000Y-23840000D02*
X61850000Y-17840000D01*
X61850000Y-26897071D02*
X61850000Y-26500000D01*
X62610000Y-17840000D02*
X62610000Y-23840000D01*
X62610000Y-26897071D02*
X62610000Y-26500000D01*
X63500000Y-26500000D02*
X63500000Y-23840000D01*
X64390000Y-17840000D02*
X65150000Y-17840000D01*
X64390000Y-23840000D02*
X64390000Y-17840000D01*
X64390000Y-26897071D02*
X64390000Y-26500000D01*
X65150000Y-17840000D02*
X65150000Y-23840000D01*
X65150000Y-26897071D02*
X65150000Y-26500000D01*
X66040000Y-26500000D02*
X66040000Y-23840000D01*
X66930000Y-17840000D02*
X67690000Y-17840000D01*
X66930000Y-23840000D02*
X66930000Y-17840000D01*
X66930000Y-26897071D02*
X66930000Y-26500000D01*
X67690000Y-17840000D02*
X67690000Y-23840000D01*
X67690000Y-26897071D02*
X67690000Y-26500000D01*
X68580000Y-26500000D02*
X68580000Y-23840000D01*
X69470000Y-17840000D02*
X70230000Y-17840000D01*
X69470000Y-23840000D02*
X69470000Y-17840000D01*
X69470000Y-26897071D02*
X69470000Y-26500000D01*
X70230000Y-17840000D02*
X70230000Y-23840000D01*
X70230000Y-26897071D02*
X70230000Y-26500000D01*
X71180000Y-23840000D02*
X50740000Y-23840000D01*
X71180000Y-26500000D02*
X71180000Y-23840000D01*
%TO.C,R1*%
X56230000Y-42750001D02*
X56230000Y-46590001D01*
X56230000Y-46590001D02*
X58070000Y-46590001D01*
X57150000Y-41800001D02*
X57150000Y-42750001D01*
X57150000Y-47540001D02*
X57150000Y-46590001D01*
X58070000Y-42750001D02*
X56230000Y-42750001D01*
X58070000Y-46590001D02*
X58070000Y-42750001D01*
D12*
%TO.C,U1*%
X38070000Y-36800000D02*
X38070000Y-39400000D01*
X38070000Y-36800000D02*
X58450000Y-36800000D01*
X38080000Y-60800000D02*
X58460000Y-60800000D01*
X38080000Y-62750000D02*
X38080000Y-60800000D01*
X38735000Y-63400000D02*
X38100000Y-62770000D01*
X40640000Y-63400000D02*
X40640000Y-60800000D01*
X58450000Y-36800000D02*
X58450000Y-39400000D01*
X58450000Y-39400000D02*
X38070000Y-39400000D01*
X58460000Y-60800000D02*
X58460000Y-63400000D01*
X58460000Y-63400000D02*
X38735000Y-63400000D01*
X32260000Y-34100000D02*
X64260000Y-34100000D01*
X64260000Y-66100000D01*
X32260000Y-66100000D01*
X32260000Y-34100000D01*
X45720000Y-66100000D02*
G75*
G02*
X48260000Y-63560000I2540000J0D01*
G01*
X48260000Y-63560000D02*
G75*
G02*
X50800000Y-66100000I-1J-2540001D01*
G01*
%TD*%
D13*
X44450000Y-40860000D03*
X44450000Y-48480000D03*
X39370000Y-59340001D03*
X39370000Y-51720001D03*
X26670000Y-27940000D03*
X29210000Y-27940000D03*
X31750000Y-27940000D03*
X34290000Y-27940000D03*
X36830000Y-27940000D03*
X39370000Y-27940000D03*
X41910000Y-27940000D03*
X44450000Y-27940000D03*
X49530000Y-40860001D03*
X49530000Y-48480001D03*
X54610000Y-51720001D03*
X54610000Y-59340001D03*
X41910000Y-51720001D03*
X41910000Y-59340001D03*
X57150000Y-51720001D03*
X57150000Y-59340001D03*
X49530000Y-51720001D03*
X49530000Y-59340001D03*
X52070000Y-27940000D03*
X54610000Y-27940000D03*
X57150000Y-27940000D03*
X59690000Y-27940000D03*
X62230000Y-27940000D03*
X64770000Y-27940000D03*
X67310000Y-27940000D03*
X69850000Y-27940000D03*
X57150000Y-40860001D03*
X57150000Y-48480001D03*
X39370000Y-62100000D03*
X41910000Y-62100000D03*
X44450000Y-62100000D03*
X46990000Y-62100000D03*
X49530000Y-62100000D03*
X52070000Y-62100000D03*
X54610000Y-62100000D03*
X57150000Y-62100000D03*
X57150000Y-38100000D03*
X54610000Y-38100000D03*
X52070000Y-38100000D03*
X49530000Y-38100000D03*
X46990000Y-38100000D03*
X44450000Y-38100000D03*
X41910000Y-38100000D03*
X39370000Y-38100000D03*
M02*
