%TF.GenerationSoftware,KiCad,Pcbnew,8.0.0*%
%TF.CreationDate,2024-03-13T19:41:11+01:00*%
%TF.ProjectId,Lamp Matrix Tester,4c616d70-204d-4617-9472-697820546573,1.0*%
%TF.SameCoordinates,Original*%
%TF.FileFunction,Soldermask,Bot*%
%TF.FilePolarity,Negative*%
%FSLAX46Y46*%
G04 Gerber Fmt 4.6, Leading zero omitted, Abs format (unit mm)*
G04 Created by KiCad (PCBNEW 8.0.0) date 2024-03-13 19:41:11*
%MOMM*%
%LPD*%
G01*
G04 APERTURE LIST*
%ADD10C,1.400000*%
%ADD11O,1.400000X1.400000*%
%ADD12R,1.700000X1.700000*%
%ADD13O,1.700000X1.700000*%
G04 APERTURE END LIST*
D10*
%TO.C,R2*%
X44450000Y-40860000D03*
D11*
X44450000Y-48480000D03*
%TD*%
D10*
%TO.C,R5*%
X39370000Y-59340001D03*
D11*
X39370000Y-51720001D03*
%TD*%
D12*
%TO.C,J1*%
X26670000Y-27940000D03*
D13*
X29210000Y-27940000D03*
X31750000Y-27940000D03*
X34290000Y-27940000D03*
X36830000Y-27940000D03*
X39370000Y-27940000D03*
X41910000Y-27940000D03*
X44450000Y-27940000D03*
%TD*%
D10*
%TO.C,R4*%
X49530000Y-40860001D03*
D11*
X49530000Y-48480001D03*
%TD*%
D10*
%TO.C,R6*%
X54610000Y-51720001D03*
D11*
X54610000Y-59340001D03*
%TD*%
D10*
%TO.C,R7*%
X41910000Y-51720001D03*
D11*
X41910000Y-59340001D03*
%TD*%
D10*
%TO.C,R3*%
X57150000Y-51720001D03*
D11*
X57150000Y-59340001D03*
%TD*%
D10*
%TO.C,R8*%
X49530000Y-51720001D03*
D11*
X49530000Y-59340001D03*
%TD*%
D12*
%TO.C,J2*%
X52070000Y-27940000D03*
D13*
X54610000Y-27940000D03*
X57150000Y-27940000D03*
X59690000Y-27940000D03*
X62230000Y-27940000D03*
X64770000Y-27940000D03*
X67310000Y-27940000D03*
X69850000Y-27940000D03*
%TD*%
D10*
%TO.C,R1*%
X57150000Y-40860001D03*
D11*
X57150000Y-48480001D03*
%TD*%
D12*
%TO.C,U1*%
X39370000Y-62100000D03*
D13*
X41910000Y-62100000D03*
X44450000Y-62100000D03*
X46990000Y-62100000D03*
X49530000Y-62100000D03*
X52070000Y-62100000D03*
X54610000Y-62100000D03*
X57150000Y-62100000D03*
X57150000Y-38100000D03*
X54610000Y-38100000D03*
X52070000Y-38100000D03*
X49530000Y-38100000D03*
X46990000Y-38100000D03*
X44450000Y-38100000D03*
X41910000Y-38100000D03*
X39370000Y-38100000D03*
%TD*%
M02*
