%TF.GenerationSoftware,KiCad,Pcbnew,8.0.0*%
%TF.CreationDate,2024-03-13T19:41:11+01:00*%
%TF.ProjectId,Lamp Matrix Tester,4c616d70-204d-4617-9472-697820546573,1.0*%
%TF.SameCoordinates,Original*%
%TF.FileFunction,Copper,L1,Top*%
%TF.FilePolarity,Positive*%
%FSLAX46Y46*%
G04 Gerber Fmt 4.6, Leading zero omitted, Abs format (unit mm)*
G04 Created by KiCad (PCBNEW 8.0.0) date 2024-03-13 19:41:11*
%MOMM*%
%LPD*%
G01*
G04 APERTURE LIST*
%TA.AperFunction,ComponentPad*%
%ADD10C,1.400000*%
%TD*%
%TA.AperFunction,ComponentPad*%
%ADD11O,1.400000X1.400000*%
%TD*%
%TA.AperFunction,ComponentPad*%
%ADD12R,1.700000X1.700000*%
%TD*%
%TA.AperFunction,ComponentPad*%
%ADD13O,1.700000X1.700000*%
%TD*%
%TA.AperFunction,Conductor*%
%ADD14C,0.250000*%
%TD*%
%ADD15C,0.350000*%
G04 APERTURE END LIST*
D10*
%TO.P,R2,1*%
%TO.N,Net-(U1-R2)*%
X44450000Y-40860000D03*
D11*
%TO.P,R2,2*%
%TO.N,/Row_2*%
X44450000Y-48480000D03*
%TD*%
D10*
%TO.P,R5,1*%
%TO.N,Net-(U1-R5)*%
X39370000Y-59340001D03*
D11*
%TO.P,R5,2*%
%TO.N,/Row_5*%
X39370000Y-51720001D03*
%TD*%
D12*
%TO.P,J1,1,Pin_1*%
%TO.N,/Col_1*%
X26670000Y-27940000D03*
D13*
%TO.P,J1,2,Pin_2*%
%TO.N,/Col_2*%
X29210000Y-27940000D03*
%TO.P,J1,3,Pin_3*%
%TO.N,/Col_3*%
X31750000Y-27940000D03*
%TO.P,J1,4,Pin_4*%
%TO.N,/Col_4*%
X34290000Y-27940000D03*
%TO.P,J1,5,Pin_5*%
%TO.N,/Col_5*%
X36830000Y-27940000D03*
%TO.P,J1,6,Pin_6*%
%TO.N,/Col_6*%
X39370000Y-27940000D03*
%TO.P,J1,7,Pin_7*%
%TO.N,/Col_7*%
X41910000Y-27940000D03*
%TO.P,J1,8,Pin_8*%
%TO.N,/Col_8*%
X44450000Y-27940000D03*
%TD*%
D10*
%TO.P,R4,1*%
%TO.N,Net-(U1-R4)*%
X49530000Y-40860001D03*
D11*
%TO.P,R4,2*%
%TO.N,/Row_4*%
X49530000Y-48480001D03*
%TD*%
D10*
%TO.P,R6,1*%
%TO.N,/Row_6*%
X54610000Y-51720001D03*
D11*
%TO.P,R6,2*%
%TO.N,Net-(U1-R6)*%
X54610000Y-59340001D03*
%TD*%
D10*
%TO.P,R7,1*%
%TO.N,/Row_7*%
X41910000Y-51720001D03*
D11*
%TO.P,R7,2*%
%TO.N,Net-(U1-R7)*%
X41910000Y-59340001D03*
%TD*%
D10*
%TO.P,R3,1*%
%TO.N,/Row_3*%
X57150000Y-51720001D03*
D11*
%TO.P,R3,2*%
%TO.N,Net-(U1-R3)*%
X57150000Y-59340001D03*
%TD*%
D10*
%TO.P,R8,1*%
%TO.N,/Row_8*%
X49530000Y-51720001D03*
D11*
%TO.P,R8,2*%
%TO.N,Net-(U1-R8)*%
X49530000Y-59340001D03*
%TD*%
D12*
%TO.P,J2,1,Pin_1*%
%TO.N,/Row_1*%
X52070000Y-27940000D03*
D13*
%TO.P,J2,2,Pin_2*%
%TO.N,/Row_2*%
X54610000Y-27940000D03*
%TO.P,J2,3,Pin_3*%
%TO.N,/Row_3*%
X57150000Y-27940000D03*
%TO.P,J2,4,Pin_4*%
%TO.N,/Row_4*%
X59690000Y-27940000D03*
%TO.P,J2,5,Pin_5*%
%TO.N,/Row_5*%
X62230000Y-27940000D03*
%TO.P,J2,6,Pin_6*%
%TO.N,/Row_6*%
X64770000Y-27940000D03*
%TO.P,J2,7,Pin_7*%
%TO.N,/Row_7*%
X67310000Y-27940000D03*
%TO.P,J2,8,Pin_8*%
%TO.N,/Row_8*%
X69850000Y-27940000D03*
%TD*%
D10*
%TO.P,R1,1*%
%TO.N,Net-(U1-R1)*%
X57150000Y-40860001D03*
D11*
%TO.P,R1,2*%
%TO.N,/Row_1*%
X57150000Y-48480001D03*
%TD*%
D12*
%TO.P,U1,1,R5*%
%TO.N,Net-(U1-R5)*%
X39370000Y-62100000D03*
D13*
%TO.P,U1,2,R7*%
%TO.N,Net-(U1-R7)*%
X41910000Y-62100000D03*
%TO.P,U1,3,C2*%
%TO.N,/Col_2*%
X44450000Y-62100000D03*
%TO.P,U1,4,C3*%
%TO.N,/Col_3*%
X46990000Y-62100000D03*
%TO.P,U1,5,R8*%
%TO.N,Net-(U1-R8)*%
X49530000Y-62100000D03*
%TO.P,U1,6,C5*%
%TO.N,/Col_5*%
X52070000Y-62100000D03*
%TO.P,U1,7,R6*%
%TO.N,Net-(U1-R6)*%
X54610000Y-62100000D03*
%TO.P,U1,8,R3*%
%TO.N,Net-(U1-R3)*%
X57150000Y-62100000D03*
%TO.P,U1,9,R1*%
%TO.N,Net-(U1-R1)*%
X57150000Y-38100000D03*
%TO.P,U1,10,C4*%
%TO.N,/Col_4*%
X54610000Y-38100000D03*
%TO.P,U1,11,C6*%
%TO.N,/Col_6*%
X52070000Y-38100000D03*
%TO.P,U1,12,R4*%
%TO.N,Net-(U1-R4)*%
X49530000Y-38100000D03*
%TO.P,U1,13,C1*%
%TO.N,/Col_1*%
X46990000Y-38100000D03*
%TO.P,U1,14,R2*%
%TO.N,Net-(U1-R2)*%
X44450000Y-38100000D03*
%TO.P,U1,15,C7*%
%TO.N,/Col_7*%
X41910000Y-38100000D03*
%TO.P,U1,16,C8*%
%TO.N,/Col_8*%
X39370000Y-38100000D03*
%TD*%
D14*
%TO.N,/Col_1*%
X40640000Y-30480000D02*
X46990000Y-36830000D01*
X26670000Y-27940000D02*
X26670000Y-29210000D01*
X27940000Y-30480000D02*
X40640000Y-30480000D01*
X26670000Y-29210000D02*
X27940000Y-30480000D01*
X46990000Y-36830000D02*
X46990000Y-38100000D01*
%TO.N,/Col_4*%
X54610000Y-35560000D02*
X54610000Y-38100000D01*
X34290000Y-27940000D02*
X35560000Y-26670000D01*
X35560000Y-26670000D02*
X45720000Y-26670000D01*
X54610000Y-36830000D02*
X54610000Y-38100000D01*
X45720000Y-26670000D02*
X54610000Y-35560000D01*
%TO.N,/Col_6*%
X45720000Y-30480000D02*
X52070000Y-36830000D01*
X39370000Y-27940000D02*
X41910000Y-30480000D01*
X41910000Y-30480000D02*
X45720000Y-30480000D01*
X52070000Y-36830000D02*
X52070000Y-38100000D01*
%TO.N,/Row_4*%
X49530000Y-48480001D02*
X51720001Y-46290000D01*
X54673604Y-46290000D02*
X55561802Y-45401802D01*
X59690000Y-41273604D02*
X59690000Y-27940000D01*
X55243604Y-45720000D02*
X59690000Y-41273604D01*
X51720001Y-46290000D02*
X53340000Y-46290000D01*
X53340000Y-46290000D02*
X54673604Y-46290000D01*
%TO.N,/Row_5*%
X39370000Y-51720001D02*
X40845000Y-50245001D01*
X51354999Y-50245001D02*
X62230000Y-39370000D01*
X40845000Y-50245001D02*
X51354999Y-50245001D01*
X62230000Y-39370000D02*
X62230000Y-27940000D01*
%TO.N,/Row_7*%
X42935000Y-50695001D02*
X51541395Y-50695001D01*
X41910000Y-51720001D02*
X42935000Y-50695001D01*
X67310000Y-34926396D02*
X67310000Y-34290000D01*
X67310000Y-34290000D02*
X67310000Y-27940000D01*
X51541395Y-50695001D02*
X67310000Y-34926396D01*
%TO.N,/Row_8*%
X51152791Y-51720001D02*
X69850000Y-33022792D01*
X49530000Y-51720001D02*
X51152791Y-51720001D01*
X69850000Y-33022792D02*
X69850000Y-33020000D01*
X69850000Y-33020000D02*
X69850000Y-27940000D01*
%TO.N,Net-(U1-R1)*%
X57150000Y-38100000D02*
X57150000Y-40860001D01*
%TO.N,Net-(U1-R2)*%
X44450000Y-38100000D02*
X44450000Y-40860000D01*
%TO.N,Net-(U1-R3)*%
X57150000Y-59340001D02*
X57150000Y-62100000D01*
%TO.N,Net-(U1-R4)*%
X49530000Y-38100000D02*
X49530000Y-40860001D01*
%TO.N,Net-(U1-R5)*%
X39370000Y-59340001D02*
X39370000Y-62100000D01*
%TO.N,Net-(U1-R6)*%
X54610000Y-59340001D02*
X54610000Y-62100000D01*
%TO.N,Net-(U1-R7)*%
X41910000Y-59340001D02*
X41910000Y-62100000D01*
%TO.N,Net-(U1-R8)*%
X49530000Y-59340001D02*
X49530000Y-62100000D01*
%TD*%
D15*
X44450000Y-40860000D03*
X44450000Y-48480000D03*
X39370000Y-59340001D03*
X39370000Y-51720001D03*
X26670000Y-27940000D03*
X29210000Y-27940000D03*
X31750000Y-27940000D03*
X34290000Y-27940000D03*
X36830000Y-27940000D03*
X39370000Y-27940000D03*
X41910000Y-27940000D03*
X44450000Y-27940000D03*
X49530000Y-40860001D03*
X49530000Y-48480001D03*
X54610000Y-51720001D03*
X54610000Y-59340001D03*
X41910000Y-51720001D03*
X41910000Y-59340001D03*
X57150000Y-51720001D03*
X57150000Y-59340001D03*
X49530000Y-51720001D03*
X49530000Y-59340001D03*
X52070000Y-27940000D03*
X54610000Y-27940000D03*
X57150000Y-27940000D03*
X59690000Y-27940000D03*
X62230000Y-27940000D03*
X64770000Y-27940000D03*
X67310000Y-27940000D03*
X69850000Y-27940000D03*
X57150000Y-40860001D03*
X57150000Y-48480001D03*
X39370000Y-62100000D03*
X41910000Y-62100000D03*
X44450000Y-62100000D03*
X46990000Y-62100000D03*
X49530000Y-62100000D03*
X52070000Y-62100000D03*
X54610000Y-62100000D03*
X57150000Y-62100000D03*
X57150000Y-38100000D03*
X54610000Y-38100000D03*
X52070000Y-38100000D03*
X49530000Y-38100000D03*
X46990000Y-38100000D03*
X44450000Y-38100000D03*
X41910000Y-38100000D03*
X39370000Y-38100000D03*
M02*
