M48
METRIC,TZ
T1C0.700
T2C1.000
%
G90
G05
T1
X39370Y-51720
X39370Y-59340
X41910Y-51720
X41910Y-59340
X44450Y-40860
X44450Y-48480
X49530Y-40860
X49530Y-48480
X49530Y-51720
X49530Y-59340
X54610Y-51720
X54610Y-59340
X57150Y-40860
X57150Y-48480
X57150Y-51720
X57150Y-59340
T2
X26670Y-27940
X29210Y-27940
X31750Y-27940
X34290Y-27940
X36830Y-27940
X39370Y-27940
X39370Y-38100
X39370Y-62100
X41910Y-27940
X41910Y-38100
X41910Y-62100
X44450Y-27940
X44450Y-38100
X44450Y-62100
X46990Y-38100
X46990Y-62100
X49530Y-38100
X49530Y-62100
X52070Y-27940
X52070Y-38100
X52070Y-62100
X54610Y-27940
X54610Y-38100
X54610Y-62100
X57150Y-27940
X57150Y-38100
X57150Y-62100
X59690Y-27940
X62230Y-27940
X64770Y-27940
X67310Y-27940
X69850Y-27940
M30
